<svg xmlns="http://www.w3.org/2000/svg" xmlns:xlink="http://www.w3.org/1999/xlink" width="377" zoomAndPan="magnify" viewBox="0 0 282.96 283.499989" height="377" preserveAspectRatio="xMidYMid meet" version="1.0"><defs><clipPath id="4b0d9be681"><path d="M 0.230469 0 L 282.691406 0 L 282.691406 283 L 0.230469 283 Z M 0.230469 0 " clip-rule="nonzero"/></clipPath><clipPath id="8ea60afe44"><path d="M 28.527344 59 L 234 59 L 234 230.671875 L 28.527344 230.671875 Z M 28.527344 59 " clip-rule="nonzero"/></clipPath><clipPath id="e848ee285f"><path d="M 35 52.484375 L 239.652344 52.484375 L 239.652344 225 L 35 225 Z M 35 52.484375 " clip-rule="nonzero"/></clipPath><clipPath id="92dc844a19"><path d="M 35 52.484375 L 239.652344 52.484375 L 239.652344 225 L 35 225 Z M 35 52.484375 " clip-rule="nonzero"/></clipPath></defs><g clip-path="url(#4b0d9be681)"><path fill="#ffffff" d="M 0.230469 0 L 283.230469 0 L 283.230469 283 L 0.230469 283 Z M 0.230469 0 " fill-opacity="1" fill-rule="nonzero"/><path fill="#ffffff" d="M 0.230469 0 L 283.230469 0 L 283.230469 283 L 0.230469 283 Z M 0.230469 0 " fill-opacity="1" fill-rule="nonzero"/></g><g clip-path="url(#8ea60afe44)"><path fill="#000000" d="M 226.441406 98.679688 L 226.441406 92.082031 L 219.84375 92.082031 L 219.84375 85.480469 L 186.859375 85.480469 L 186.859375 78.882812 L 180.265625 78.882812 L 180.265625 72.28125 L 173.667969 72.28125 L 173.667969 65.683594 L 167.070312 65.683594 L 167.070312 59.085938 L 94.511719 59.085938 L 94.511719 65.683594 L 87.914062 65.683594 L 87.914062 72.28125 L 81.316406 72.28125 L 81.316406 78.882812 L 74.722656 78.882812 L 74.722656 85.480469 L 41.738281 85.480469 L 41.738281 92.082031 L 35.140625 92.082031 L 35.140625 98.679688 L 28.546875 98.679688 L 28.546875 217.460938 L 35.140625 217.460938 L 35.140625 224.0625 L 41.738281 224.0625 L 41.738281 230.660156 L 219.84375 230.660156 L 219.84375 224.0625 L 226.441406 224.0625 L 226.441406 217.460938 L 233.035156 217.460938 L 233.035156 98.679688 Z M 226.441406 98.679688 " fill-opacity="0.3" fill-rule="nonzero"/></g><g clip-path="url(#e848ee285f)"><path fill="#000000" d="M 233.035156 92.082031 L 233.035156 85.480469 L 226.441406 85.480469 L 226.441406 78.882812 L 193.457031 78.882812 L 193.457031 72.28125 L 186.859375 72.28125 L 186.859375 65.683594 L 180.265625 65.683594 L 180.265625 59.085938 L 173.667969 59.085938 L 173.667969 52.484375 L 101.105469 52.484375 L 101.105469 59.085938 L 94.511719 59.085938 L 94.511719 65.683594 L 87.914062 65.683594 L 87.914062 72.28125 L 81.316406 72.28125 L 81.316406 78.882812 L 48.335938 78.882812 L 48.335938 85.480469 L 41.738281 85.480469 L 41.738281 92.082031 L 35.140625 92.082031 L 35.140625 210.863281 L 41.738281 210.863281 L 41.738281 217.460938 L 48.335938 217.460938 L 48.335938 224.0625 L 226.441406 224.0625 L 226.441406 217.460938 L 233.035156 217.460938 L 233.035156 210.863281 L 239.632812 210.863281 L 239.632812 92.082031 Z M 233.035156 92.082031 " fill-opacity="1" fill-rule="nonzero"/></g><path fill="#929394" d="M 226.441406 92.082031 L 226.441406 85.480469 L 186.859375 85.480469 L 186.859375 72.28125 L 180.265625 72.28125 L 180.265625 65.683594 L 173.667969 65.683594 L 173.667969 59.085938 L 101.105469 59.085938 L 101.105469 65.683594 L 94.511719 65.683594 L 94.511719 72.28125 L 87.914062 72.28125 L 87.914062 85.480469 L 48.335938 85.480469 L 48.335938 92.082031 L 41.738281 92.082031 L 41.738281 210.863281 L 48.335938 210.863281 L 48.335938 217.460938 L 226.441406 217.460938 L 226.441406 210.863281 L 233.035156 210.863281 L 233.035156 92.082031 Z M 226.441406 92.082031 " fill-opacity="1" fill-rule="nonzero"/><path fill="#d1d3d4" d="M 186.859375 131.675781 L 186.859375 171.269531 L 180.265625 171.269531 L 180.265625 184.46875 L 173.667969 184.46875 L 173.667969 191.066406 L 160.476562 191.066406 L 160.476562 197.664062 L 114.300781 197.664062 L 114.300781 191.066406 L 101.105469 191.066406 L 101.105469 184.46875 L 94.511719 184.46875 L 94.511719 171.269531 L 87.914062 171.269531 L 87.914062 131.675781 L 94.511719 131.675781 L 94.511719 118.476562 L 101.105469 118.476562 L 101.105469 111.878906 L 114.300781 111.878906 L 114.300781 105.277344 L 160.476562 105.277344 L 160.476562 111.878906 L 173.667969 111.878906 L 173.667969 118.476562 L 180.265625 118.476562 L 180.265625 131.675781 Z M 134.089844 85.480469 L 153.878906 85.480469 L 153.878906 72.28125 L 120.898438 72.28125 L 120.898438 85.480469 Z M 134.089844 85.480469 " fill-opacity="1" fill-rule="nonzero"/><path fill="#333333" d="M 160.476562 131.675781 L 160.476562 125.074219 L 114.300781 125.074219 L 114.300781 131.675781 L 107.703125 131.675781 L 107.703125 171.269531 L 114.300781 171.269531 L 114.300781 177.867188 L 160.476562 177.867188 L 160.476562 171.269531 L 167.070312 171.269531 L 167.070312 131.675781 Z M 160.476562 131.675781 " fill-opacity="1" fill-rule="nonzero"/><g clip-path="url(#92dc844a19)"><path fill="#000000" d="M 239.632812 92.082031 L 239.632812 210.863281 L 233.035156 210.863281 L 233.035156 92.082031 Z M 226.441406 217.460938 L 233.035156 217.460938 L 233.035156 210.863281 L 226.441406 210.863281 Z M 233.035156 92.082031 L 233.035156 85.480469 L 226.441406 85.480469 L 226.441406 92.082031 Z M 213.246094 217.460938 L 48.335938 217.460938 L 48.335938 224.0625 L 226.441406 224.0625 L 226.441406 217.460938 Z M 186.859375 138.273438 L 186.859375 171.269531 L 193.457031 171.269531 L 193.457031 131.675781 L 186.859375 131.675781 Z M 186.859375 85.480469 L 226.441406 85.480469 L 226.441406 78.882812 L 193.457031 78.882812 L 193.457031 72.28125 L 186.859375 72.28125 Z M 180.265625 177.867188 L 180.265625 184.46875 L 186.859375 184.46875 L 186.859375 171.269531 L 180.265625 171.269531 Z M 180.265625 131.675781 L 186.859375 131.675781 L 186.859375 118.476562 L 180.265625 118.476562 Z M 186.859375 72.28125 L 186.859375 65.683594 L 180.265625 65.683594 L 180.265625 72.28125 Z M 173.667969 191.066406 L 180.265625 191.066406 L 180.265625 184.46875 L 173.667969 184.46875 Z M 180.265625 118.476562 L 180.265625 111.878906 L 173.667969 111.878906 L 173.667969 118.476562 Z M 180.265625 65.683594 L 180.265625 59.085938 L 173.667969 59.085938 L 173.667969 65.683594 Z M 167.070312 138.273438 L 167.070312 171.269531 L 173.667969 171.269531 L 173.667969 131.675781 L 167.070312 131.675781 Z M 160.476562 191.066406 L 160.476562 197.664062 L 173.667969 197.664062 L 173.667969 191.066406 Z M 160.476562 177.867188 L 167.070312 177.867188 L 167.070312 171.269531 L 160.476562 171.269531 Z M 167.070312 131.675781 L 167.070312 125.074219 L 160.476562 125.074219 L 160.476562 131.675781 Z M 167.070312 111.878906 L 173.667969 111.878906 L 173.667969 105.277344 L 160.476562 105.277344 L 160.476562 111.878906 Z M 153.878906 85.480469 L 160.476562 85.480469 L 160.476562 72.28125 L 153.878906 72.28125 Z M 147.28125 197.664062 L 114.300781 197.664062 L 114.300781 204.265625 L 160.476562 204.265625 L 160.476562 197.664062 Z M 147.28125 177.867188 L 114.300781 177.867188 L 114.300781 184.46875 L 160.476562 184.46875 L 160.476562 177.867188 Z M 140.6875 85.480469 L 120.898438 85.480469 L 120.898438 92.082031 L 153.878906 92.082031 L 153.878906 85.480469 Z M 134.089844 72.28125 L 153.878906 72.28125 L 153.878906 65.683594 L 120.898438 65.683594 L 120.898438 72.28125 Z M 127.492188 125.074219 L 160.476562 125.074219 L 160.476562 118.476562 L 114.300781 118.476562 L 114.300781 125.074219 Z M 127.492188 105.277344 L 160.476562 105.277344 L 160.476562 98.679688 L 114.300781 98.679688 L 114.300781 105.277344 Z M 120.898438 78.882812 L 120.898438 72.28125 L 114.300781 72.28125 L 114.300781 85.480469 L 120.898438 85.480469 Z M 107.703125 191.066406 L 101.105469 191.066406 L 101.105469 197.664062 L 114.300781 197.664062 L 114.300781 191.066406 Z M 107.703125 171.269531 L 107.703125 177.867188 L 114.300781 177.867188 L 114.300781 171.269531 Z M 114.300781 125.074219 L 107.703125 125.074219 L 107.703125 131.675781 L 114.300781 131.675781 Z M 114.300781 111.878906 L 114.300781 105.277344 L 101.105469 105.277344 L 101.105469 111.878906 Z M 114.300781 59.085938 L 173.667969 59.085938 L 173.667969 52.484375 L 101.105469 52.484375 L 101.105469 59.085938 Z M 107.703125 158.070312 L 107.703125 131.675781 L 101.105469 131.675781 L 101.105469 171.269531 L 107.703125 171.269531 Z M 94.511719 184.46875 L 94.511719 191.066406 L 101.105469 191.066406 L 101.105469 184.46875 Z M 101.105469 111.878906 L 94.511719 111.878906 L 94.511719 118.476562 L 101.105469 118.476562 Z M 101.105469 59.085938 L 94.511719 59.085938 L 94.511719 65.683594 L 101.105469 65.683594 Z M 94.511719 171.269531 L 87.914062 171.269531 L 87.914062 184.46875 L 94.511719 184.46875 Z M 94.511719 125.074219 L 94.511719 118.476562 L 87.914062 118.476562 L 87.914062 131.675781 L 94.511719 131.675781 Z M 94.511719 65.683594 L 87.914062 65.683594 L 87.914062 72.28125 L 94.511719 72.28125 Z M 87.914062 158.070312 L 87.914062 131.675781 L 81.316406 131.675781 L 81.316406 171.269531 L 87.914062 171.269531 Z M 61.527344 85.480469 L 87.914062 85.480469 L 87.914062 72.28125 L 81.316406 72.28125 L 81.316406 78.882812 L 48.335938 78.882812 L 48.335938 85.480469 Z M 41.738281 210.863281 L 41.738281 217.460938 L 48.335938 217.460938 L 48.335938 210.863281 Z M 48.335938 85.480469 L 41.738281 85.480469 L 41.738281 92.082031 L 48.335938 92.082031 Z M 41.738281 197.664062 L 41.738281 92.082031 L 35.140625 92.082031 L 35.140625 210.863281 L 41.738281 210.863281 Z M 41.738281 197.664062 " fill-opacity="1" fill-rule="nonzero"/></g><path fill="#000000" d="M 167.070312 131.675781 L 167.070312 171.269531 L 160.476562 171.269531 L 160.476562 177.867188 L 114.300781 177.867188 L 114.300781 171.269531 L 153.878906 171.269531 L 153.878906 164.671875 L 160.476562 164.671875 L 160.476562 138.273438 L 153.878906 138.273438 L 153.878906 131.675781 L 114.300781 131.675781 L 114.300781 125.074219 L 160.476562 125.074219 L 160.476562 131.675781 Z M 167.070312 131.675781 " fill-opacity="0.5" fill-rule="nonzero"/><path fill="#000000" d="M 153.878906 191.066406 L 153.878906 197.664062 L 114.300781 197.664062 L 114.300781 191.066406 Z M 120.898438 105.277344 L 114.300781 105.277344 L 114.300781 111.878906 L 120.898438 111.878906 Z M 107.703125 184.46875 L 101.105469 184.46875 L 101.105469 191.066406 L 114.300781 191.066406 L 114.300781 184.46875 Z M 114.300781 118.476562 L 114.300781 111.878906 L 101.105469 111.878906 L 101.105469 118.476562 Z M 101.105469 171.269531 L 94.511719 171.269531 L 94.511719 184.46875 L 101.105469 184.46875 Z M 101.105469 125.074219 L 101.105469 118.476562 L 94.511719 118.476562 L 94.511719 131.675781 L 101.105469 131.675781 Z M 94.511719 158.070312 L 94.511719 131.675781 L 87.914062 131.675781 L 87.914062 171.269531 L 94.511719 171.269531 Z M 94.511719 158.070312 " fill-opacity="0.3" fill-rule="nonzero"/><path fill="#000000" d="M 101.105469 72.28125 L 94.511719 72.28125 L 94.511719 65.683594 L 101.105469 65.683594 Z M 94.511719 78.882812 L 94.511719 72.28125 L 87.914062 72.28125 L 87.914062 85.480469 L 94.511719 85.480469 Z M 48.335938 197.664062 L 48.335938 98.679688 L 54.933594 98.679688 L 54.933594 92.082031 L 87.914062 92.082031 L 87.914062 85.480469 L 48.335938 85.480469 L 48.335938 92.082031 L 41.738281 92.082031 L 41.738281 210.863281 L 48.335938 210.863281 Z M 101.105469 105.277344 L 94.511719 105.277344 L 94.511719 111.878906 L 101.105469 111.878906 Z M 107.703125 59.085938 L 101.105469 59.085938 L 101.105469 65.683594 L 107.703125 65.683594 Z M 107.703125 78.882812 L 107.703125 92.082031 L 114.300781 92.082031 L 114.300781 98.679688 L 147.28125 98.679688 L 147.28125 92.082031 L 120.898438 92.082031 L 120.898438 85.480469 L 114.300781 85.480469 L 114.300781 78.882812 Z M 167.070312 197.664062 L 160.476562 197.664062 L 160.476562 204.265625 L 167.070312 204.265625 Z M 94.511719 191.066406 L 94.511719 197.664062 L 101.105469 197.664062 L 101.105469 191.066406 Z M 153.878906 210.863281 L 153.878906 204.265625 L 114.300781 204.265625 L 114.300781 197.664062 L 101.105469 197.664062 L 101.105469 204.265625 L 107.703125 204.265625 L 107.703125 210.863281 L 48.335938 210.863281 L 48.335938 217.460938 L 219.84375 217.460938 L 219.84375 210.863281 Z M 87.914062 184.46875 L 87.914062 191.066406 L 94.511719 191.066406 L 94.511719 184.46875 Z M 87.914062 171.269531 L 81.316406 171.269531 L 81.316406 131.675781 L 74.722656 131.675781 L 74.722656 177.867188 L 81.316406 177.867188 L 81.316406 184.46875 L 87.914062 184.46875 Z M 94.511719 111.878906 L 87.914062 111.878906 L 87.914062 118.476562 L 94.511719 118.476562 Z M 87.914062 125.074219 L 87.914062 118.476562 L 81.316406 118.476562 L 81.316406 131.675781 L 87.914062 131.675781 Z M 87.914062 125.074219 " fill-opacity="0.3" fill-rule="nonzero"/><path fill="#ffffff" d="M 186.859375 131.675781 L 186.859375 171.269531 L 180.265625 171.269531 L 180.265625 131.675781 Z M 173.667969 177.867188 L 173.667969 184.46875 L 180.265625 184.46875 L 180.265625 171.269531 L 173.667969 171.269531 Z M 180.265625 118.476562 L 173.667969 118.476562 L 173.667969 131.675781 L 180.265625 131.675781 Z M 167.070312 111.878906 L 160.476562 111.878906 L 160.476562 118.476562 L 173.667969 118.476562 L 173.667969 111.878906 Z M 160.476562 184.46875 L 160.476562 191.066406 L 173.667969 191.066406 L 173.667969 184.46875 Z M 153.878906 197.664062 L 160.476562 197.664062 L 160.476562 191.066406 L 153.878906 191.066406 Z M 153.878906 105.277344 L 153.878906 111.878906 L 160.476562 111.878906 L 160.476562 105.277344 Z M 153.878906 85.480469 L 153.878906 72.28125 L 120.898438 72.28125 L 120.898438 78.882812 L 147.28125 78.882812 L 147.28125 85.480469 Z M 153.878906 85.480469 " fill-opacity="0.9" fill-rule="nonzero"/><path fill="#ffffff" d="M 233.035156 92.082031 L 233.035156 210.863281 L 226.441406 210.863281 L 226.441406 98.679688 L 219.84375 98.679688 L 219.84375 92.082031 L 186.859375 92.082031 L 186.859375 85.480469 L 226.441406 85.480469 L 226.441406 92.082031 Z M 219.84375 217.460938 L 226.441406 217.460938 L 226.441406 210.863281 L 219.84375 210.863281 Z M 186.859375 72.28125 L 180.265625 72.28125 L 180.265625 85.480469 L 186.859375 85.480469 Z M 173.667969 65.683594 L 173.667969 72.28125 L 180.265625 72.28125 L 180.265625 65.683594 Z M 167.070312 59.085938 L 167.070312 65.683594 L 173.667969 65.683594 L 173.667969 59.085938 Z M 167.070312 59.085938 " fill-opacity="0.4" fill-rule="nonzero"/><path fill="#929394" d="M 153.878906 138.273438 L 153.878906 151.472656 L 134.089844 151.472656 L 134.089844 138.273438 Z M 127.492188 164.671875 L 134.089844 164.671875 L 134.089844 158.070312 L 127.492188 158.070312 Z M 127.492188 164.671875 " fill-opacity="0.6" fill-rule="nonzero"/><path fill="#000000" d="M 127.492188 72.28125 L 120.898438 72.28125 L 120.898438 78.882812 L 127.492188 78.882812 Z M 134.089844 78.882812 L 127.492188 78.882812 L 127.492188 85.480469 L 134.089844 85.480469 Z M 140.6875 72.28125 L 134.089844 72.28125 L 134.089844 78.882812 L 140.6875 78.882812 Z M 147.28125 78.882812 L 140.6875 78.882812 L 140.6875 85.480469 L 147.28125 85.480469 Z M 153.878906 72.28125 L 147.28125 72.28125 L 147.28125 78.882812 L 153.878906 78.882812 Z M 153.878906 72.28125 " fill-opacity="0.2" fill-rule="nonzero"/></svg>