<svg xmlns="http://www.w3.org/2000/svg" xmlns:xlink="http://www.w3.org/1999/xlink" width="377" zoomAndPan="magnify" viewBox="0 0 282.96 283.499989" height="377" preserveAspectRatio="xMidYMid meet" version="1.0"><defs><clipPath id="8c9d7ceec2"><path d="M 0.230469 0 L 282.691406 0 L 282.691406 283 L 0.230469 283 Z M 0.230469 0 " clip-rule="nonzero"/></clipPath><clipPath id="dd0b41799f"><path d="M 50.101562 44.210938 L 233.527344 44.210938 L 233.527344 238.867188 L 50.101562 238.867188 Z M 50.101562 44.210938 " clip-rule="nonzero"/></clipPath></defs><g clip-path="url(#8c9d7ceec2)"><path fill="#ffffff" d="M 0.230469 0 L 283.230469 0 L 283.230469 283 L 0.230469 283 Z M 0.230469 0 " fill-opacity="1" fill-rule="nonzero"/><path fill="#ffffff" d="M 0.230469 0 L 283.230469 0 L 283.230469 283 L 0.230469 283 Z M 0.230469 0 " fill-opacity="1" fill-rule="nonzero"/></g><g clip-path="url(#dd0b41799f)"><path fill="#000000" d="M 233.464844 49.9375 L 233.464844 90.011719 L 227.738281 90.011719 L 227.738281 95.738281 L 187.640625 95.738281 L 187.640625 101.464844 L 222.011719 101.464844 L 222.011719 107.1875 L 216.28125 107.1875 L 216.28125 112.914062 L 187.640625 112.914062 L 187.640625 130.089844 L 181.910156 130.089844 L 181.910156 141.539062 L 199.097656 141.539062 L 199.097656 164.441406 L 187.640625 164.441406 L 187.640625 152.988281 L 181.910156 152.988281 L 181.910156 170.164062 L 176.183594 170.164062 L 176.183594 181.617188 L 170.453125 181.617188 L 170.453125 187.339844 L 164.726562 187.339844 L 164.726562 193.066406 L 159 193.066406 L 159 198.792969 L 153.269531 198.792969 L 153.269531 221.691406 L 147.542969 221.691406 L 147.542969 233.144531 L 153.269531 233.144531 L 153.269531 238.867188 L 130.355469 238.867188 L 130.355469 215.96875 L 113.171875 215.96875 L 113.171875 221.691406 L 107.441406 221.691406 L 107.441406 233.144531 L 113.171875 233.144531 L 113.171875 238.867188 L 90.257812 238.867188 L 90.257812 204.515625 L 84.53125 204.515625 L 84.53125 198.792969 L 78.800781 198.792969 L 78.800781 193.066406 L 73.074219 193.066406 L 73.074219 187.339844 L 67.34375 187.339844 L 67.34375 181.617188 L 61.617188 181.617188 L 61.617188 175.890625 L 55.886719 175.890625 L 55.886719 170.164062 L 50.160156 170.164062 L 50.160156 130.089844 L 55.886719 130.089844 L 55.886719 124.363281 L 61.617188 124.363281 L 61.617188 130.089844 L 67.34375 130.089844 L 67.34375 135.816406 L 73.074219 135.816406 L 73.074219 141.539062 L 78.800781 141.539062 L 78.800781 147.265625 L 84.53125 147.265625 L 84.53125 152.988281 L 101.714844 152.988281 L 101.714844 147.265625 L 107.441406 147.265625 L 107.441406 141.539062 L 113.171875 141.539062 L 113.171875 135.816406 L 118.898438 135.816406 L 118.898438 130.089844 L 124.628906 130.089844 L 124.628906 124.363281 L 130.355469 124.363281 L 130.355469 118.640625 L 136.085938 118.640625 L 136.085938 61.386719 L 141.8125 61.386719 L 141.8125 55.660156 L 147.542969 55.660156 L 147.542969 49.9375 L 153.269531 49.9375 L 153.269531 44.210938 L 227.738281 44.210938 L 227.738281 49.9375 Z M 233.464844 49.9375 " fill-opacity="1" fill-rule="nonzero"/></g><path fill="#ffffff" d="M 164.726562 61.386719 L 176.183594 61.386719 L 176.183594 72.835938 L 164.726562 72.835938 Z M 101.714844 158.714844 L 101.714844 164.441406 L 107.441406 164.441406 L 107.441406 158.714844 Z M 90.257812 158.714844 L 90.257812 164.441406 L 95.988281 164.441406 L 95.988281 158.714844 Z M 78.800781 158.714844 L 78.800781 164.441406 L 84.53125 164.441406 L 84.53125 158.714844 Z M 78.800781 158.714844 L 78.800781 152.988281 L 73.074219 152.988281 L 73.074219 158.714844 Z M 73.074219 152.988281 L 73.074219 147.265625 L 67.34375 147.265625 L 67.34375 152.988281 Z M 67.34375 141.539062 L 61.617188 141.539062 L 61.617188 147.265625 L 67.34375 147.265625 Z M 55.886719 135.816406 L 55.886719 141.539062 L 61.617188 141.539062 L 61.617188 135.816406 Z M 67.34375 158.714844 L 67.34375 164.441406 L 73.074219 164.441406 L 73.074219 158.714844 Z M 61.617188 152.988281 L 61.617188 158.714844 L 67.34375 158.714844 L 67.34375 152.988281 Z M 55.886719 147.265625 L 55.886719 152.988281 L 61.617188 152.988281 L 61.617188 147.265625 Z M 113.171875 152.988281 L 107.441406 152.988281 L 107.441406 158.714844 L 113.171875 158.714844 Z M 118.898438 147.265625 L 113.171875 147.265625 L 113.171875 152.988281 L 118.898438 152.988281 Z M 124.628906 141.539062 L 118.898438 141.539062 L 118.898438 147.265625 L 124.628906 147.265625 Z M 130.355469 135.816406 L 124.628906 135.816406 L 124.628906 141.539062 L 130.355469 141.539062 Z M 136.085938 130.089844 L 130.355469 130.089844 L 130.355469 135.816406 L 136.085938 135.816406 Z M 141.8125 124.363281 L 136.085938 124.363281 L 136.085938 130.089844 L 141.8125 130.089844 Z M 141.8125 124.363281 L 147.542969 124.363281 L 147.542969 118.640625 L 141.8125 118.640625 Z M 141.8125 112.914062 L 147.542969 112.914062 L 147.542969 107.1875 L 141.8125 107.1875 Z M 141.8125 101.464844 L 147.542969 101.464844 L 147.542969 95.738281 L 141.8125 95.738281 Z M 141.8125 84.289062 L 141.8125 90.011719 L 147.542969 90.011719 L 147.542969 84.289062 Z M 141.8125 72.835938 L 141.8125 78.5625 L 147.542969 78.5625 L 147.542969 72.835938 Z M 141.8125 61.386719 L 141.8125 67.113281 L 147.542969 67.113281 L 147.542969 61.386719 Z M 147.542969 72.835938 L 153.269531 72.835938 L 153.269531 67.113281 L 147.542969 67.113281 Z M 147.542969 84.289062 L 153.269531 84.289062 L 153.269531 78.5625 L 147.542969 78.5625 Z M 147.542969 95.738281 L 153.269531 95.738281 L 153.269531 90.011719 L 147.542969 90.011719 Z M 153.269531 107.1875 L 153.269531 101.464844 L 147.542969 101.464844 L 147.542969 107.1875 Z M 153.269531 118.640625 L 153.269531 112.914062 L 147.542969 112.914062 L 147.542969 118.640625 Z M 153.269531 130.089844 L 153.269531 124.363281 L 147.542969 124.363281 L 147.542969 130.089844 Z M 141.8125 135.816406 L 147.542969 135.816406 L 147.542969 130.089844 L 141.8125 130.089844 Z M 136.085938 141.539062 L 141.8125 141.539062 L 141.8125 135.816406 L 136.085938 135.816406 Z M 130.355469 147.265625 L 136.085938 147.265625 L 136.085938 141.539062 L 130.355469 141.539062 Z M 124.628906 152.988281 L 130.355469 152.988281 L 130.355469 147.265625 L 124.628906 147.265625 Z M 118.898438 158.714844 L 124.628906 158.714844 L 124.628906 152.988281 L 118.898438 152.988281 Z M 113.171875 164.441406 L 118.898438 164.441406 L 118.898438 158.714844 L 113.171875 158.714844 Z M 107.441406 170.164062 L 113.171875 170.164062 L 113.171875 164.441406 L 107.441406 164.441406 Z M 95.988281 170.164062 L 101.714844 170.164062 L 101.714844 164.441406 L 95.988281 164.441406 Z M 84.53125 170.164062 L 90.257812 170.164062 L 90.257812 164.441406 L 84.53125 164.441406 Z M 73.074219 170.164062 L 78.800781 170.164062 L 78.800781 164.441406 L 73.074219 164.441406 Z M 153.269531 55.660156 L 147.542969 55.660156 L 147.542969 61.386719 L 153.269531 61.386719 Z M 159 49.9375 L 153.269531 49.9375 L 153.269531 55.660156 L 159 55.660156 Z M 170.453125 49.9375 L 164.726562 49.9375 L 164.726562 55.660156 L 170.453125 55.660156 Z M 176.183594 49.9375 L 176.183594 55.660156 L 181.910156 55.660156 L 181.910156 49.9375 Z M 153.269531 67.113281 L 159 67.113281 L 159 61.386719 L 153.269531 61.386719 Z M 159 55.660156 L 159 61.386719 L 164.726562 61.386719 L 164.726562 55.660156 Z M 159 78.5625 L 159 72.835938 L 153.269531 72.835938 L 153.269531 78.5625 Z M 159 90.011719 L 159 84.289062 L 153.269531 84.289062 L 153.269531 90.011719 Z M 159 90.011719 " fill-opacity="1" fill-rule="nonzero"/></svg>