<svg xmlns="http://www.w3.org/2000/svg" xmlns:xlink="http://www.w3.org/1999/xlink" width="377" zoomAndPan="magnify" viewBox="0 0 282.96 283.499989" height="377" preserveAspectRatio="xMidYMid meet" version="1.0"><defs><clipPath id="0088b91783"><path d="M 0.230469 0 L 282.691406 0 L 282.691406 283 L 0.230469 283 Z M 0.230469 0 " clip-rule="nonzero"/></clipPath><clipPath id="1656bf5fb0"><path d="M 43.496094 40.324219 L 239.652344 40.324219 L 239.652344 242.46875 L 43.496094 242.46875 Z M 43.496094 40.324219 " clip-rule="nonzero"/></clipPath><clipPath id="79b557edef"><path d="M 119 40.324219 L 164 40.324219 L 164 85 L 119 85 Z M 119 40.324219 " clip-rule="nonzero"/></clipPath><clipPath id="b0f058a5c2"><path d="M 195 122 L 239.652344 122 L 239.652344 167 L 195 167 Z M 195 122 " clip-rule="nonzero"/></clipPath><clipPath id="4d77c1fd6f"><path d="M 119 198 L 164 198 L 164 242.46875 L 119 242.46875 Z M 119 198 " clip-rule="nonzero"/></clipPath><clipPath id="cec670d7d2"><path d="M 43.496094 122 L 88 122 L 88 167 L 43.496094 167 Z M 43.496094 122 " clip-rule="nonzero"/></clipPath></defs><g clip-path="url(#0088b91783)"><path fill="#ffffff" d="M 0.230469 0 L 283.230469 0 L 283.230469 283 L 0.230469 283 Z M 0.230469 0 " fill-opacity="1" fill-rule="nonzero"/><path fill="#ffffff" d="M 0.230469 0 L 283.230469 0 L 283.230469 283 L 0.230469 283 Z M 0.230469 0 " fill-opacity="1" fill-rule="nonzero"/></g><g clip-path="url(#1656bf5fb0)"><path fill="#ffffff" d="M 157.359375 52.960938 L 163.671875 52.960938 L 163.671875 71.910156 L 157.359375 71.910156 L 157.359375 78.226562 L 151.042969 78.226562 L 151.042969 84.542969 L 132.105469 84.542969 L 132.105469 78.226562 L 125.789062 78.226562 L 125.789062 71.910156 L 119.476562 71.910156 L 119.476562 52.960938 L 125.789062 52.960938 L 125.789062 46.640625 L 132.105469 46.640625 L 132.105469 40.324219 L 151.042969 40.324219 L 151.042969 46.640625 L 157.359375 46.640625 Z M 157.359375 204.566406 L 151.042969 204.566406 L 151.042969 198.25 L 132.105469 198.25 L 132.105469 204.566406 L 125.789062 204.566406 L 125.789062 210.882812 L 119.476562 210.882812 L 119.476562 229.835938 L 125.789062 229.835938 L 125.789062 236.152344 L 132.105469 236.152344 L 132.105469 242.46875 L 151.042969 242.46875 L 151.042969 236.152344 L 157.359375 236.152344 L 157.359375 229.835938 L 163.671875 229.835938 L 163.671875 210.882812 L 157.359375 210.882812 Z M 75.28125 166.664062 L 75.28125 160.347656 L 81.597656 160.347656 L 81.597656 154.03125 L 87.910156 154.03125 L 87.910156 135.078125 L 81.597656 135.078125 L 81.597656 128.761719 L 75.28125 128.761719 L 75.28125 122.445312 L 56.34375 122.445312 L 56.34375 128.761719 L 50.027344 128.761719 L 50.027344 135.078125 L 43.714844 135.078125 L 43.714844 154.03125 L 50.027344 154.03125 L 50.027344 160.347656 L 56.34375 160.347656 L 56.34375 166.664062 Z M 100.535156 71.910156 L 94.222656 71.910156 L 94.222656 65.59375 L 75.28125 65.59375 L 75.28125 71.910156 L 68.96875 71.910156 L 68.96875 78.226562 L 62.65625 78.226562 L 62.65625 97.179688 L 68.96875 97.179688 L 68.96875 103.496094 L 75.28125 103.496094 L 75.28125 109.8125 L 94.222656 109.8125 L 94.222656 103.496094 L 100.535156 103.496094 L 100.535156 97.179688 L 106.851562 97.179688 L 106.851562 78.226562 L 100.535156 78.226562 Z M 100.535156 185.617188 L 94.222656 185.617188 L 94.222656 179.300781 L 75.28125 179.300781 L 75.28125 185.617188 L 68.96875 185.617188 L 68.96875 191.933594 L 62.65625 191.933594 L 62.65625 210.882812 L 68.96875 210.882812 L 68.96875 217.199219 L 75.28125 217.199219 L 75.28125 223.519531 L 94.222656 223.519531 L 94.222656 217.199219 L 100.535156 217.199219 L 100.535156 210.882812 L 106.851562 210.882812 L 106.851562 191.933594 L 100.535156 191.933594 Z M 233.117188 135.078125 L 233.117188 128.761719 L 226.804688 128.761719 L 226.804688 122.445312 L 207.867188 122.445312 L 207.867188 128.761719 L 201.550781 128.761719 L 201.550781 135.078125 L 195.238281 135.078125 L 195.238281 154.03125 L 201.550781 154.03125 L 201.550781 160.347656 L 207.867188 160.347656 L 207.867188 166.664062 L 226.804688 166.664062 L 226.804688 160.347656 L 233.117188 160.347656 L 233.117188 154.03125 L 239.433594 154.03125 L 239.433594 135.078125 Z M 214.179688 185.617188 L 207.867188 185.617188 L 207.867188 179.300781 L 188.925781 179.300781 L 188.925781 185.617188 L 182.613281 185.617188 L 182.613281 191.933594 L 176.296875 191.933594 L 176.296875 210.882812 L 182.613281 210.882812 L 182.613281 217.199219 L 188.925781 217.199219 L 188.925781 223.519531 L 207.867188 223.519531 L 207.867188 217.199219 L 214.179688 217.199219 L 214.179688 210.882812 L 220.492188 210.882812 L 220.492188 191.933594 L 214.179688 191.933594 Z M 182.613281 87.726562 L 182.613281 103.496094 L 188.925781 103.496094 L 188.925781 109.8125 L 207.867188 109.8125 L 207.867188 103.496094 L 214.179688 103.496094 L 214.179688 97.179688 L 220.492188 97.179688 L 220.492188 78.226562 L 214.179688 78.226562 L 214.179688 87.726562 L 214.179688 71.910156 L 207.867188 71.910156 L 207.867188 65.59375 L 188.925781 65.59375 L 188.925781 71.910156 L 182.613281 71.910156 L 182.613281 78.226562 L 176.296875 78.226562 L 176.296875 97.179688 L 182.613281 97.179688 Z M 182.613281 87.726562 " fill-opacity="1" fill-rule="nonzero"/></g><g clip-path="url(#79b557edef)"><path fill="#000000" d="M 157.359375 52.960938 L 157.359375 46.640625 L 151.042969 46.640625 L 151.042969 40.324219 L 132.105469 40.324219 L 132.105469 46.640625 L 125.789062 46.640625 L 125.789062 52.960938 L 119.476562 52.960938 L 119.476562 71.910156 L 125.789062 71.910156 L 125.789062 78.226562 L 132.105469 78.226562 L 132.105469 84.542969 L 151.042969 84.542969 L 151.042969 78.226562 L 157.359375 78.226562 L 157.359375 71.910156 L 163.671875 71.910156 L 163.671875 52.960938 Z M 157.359375 52.960938 " fill-opacity="1" fill-rule="nonzero"/></g><path fill="#000000" d="M 214.179688 78.226562 L 214.179688 71.910156 L 207.867188 71.910156 L 207.867188 65.59375 L 188.925781 65.59375 L 188.925781 71.910156 L 182.613281 71.910156 L 182.613281 78.226562 L 176.296875 78.226562 L 176.296875 97.179688 L 182.613281 97.179688 L 182.613281 103.496094 L 188.925781 103.496094 L 188.925781 109.8125 L 207.867188 109.8125 L 207.867188 103.496094 L 214.179688 103.496094 L 214.179688 97.179688 L 220.492188 97.179688 L 220.492188 78.226562 Z M 214.179688 78.226562 " fill-opacity="0.9" fill-rule="nonzero"/><g clip-path="url(#b0f058a5c2)"><path fill="#000000" d="M 233.117188 135.078125 L 233.117188 128.761719 L 226.804688 128.761719 L 226.804688 122.445312 L 207.867188 122.445312 L 207.867188 128.761719 L 201.550781 128.761719 L 201.550781 135.078125 L 195.238281 135.078125 L 195.238281 154.03125 L 201.550781 154.03125 L 201.550781 160.347656 L 207.867188 160.347656 L 207.867188 166.664062 L 226.804688 166.664062 L 226.804688 160.347656 L 233.117188 160.347656 L 233.117188 154.03125 L 239.433594 154.03125 L 239.433594 135.078125 Z M 233.117188 135.078125 " fill-opacity="0.8" fill-rule="nonzero"/></g><path fill="#000000" d="M 214.179688 191.933594 L 214.179688 185.617188 L 207.867188 185.617188 L 207.867188 179.300781 L 188.925781 179.300781 L 188.925781 185.617188 L 182.613281 185.617188 L 182.613281 191.933594 L 176.296875 191.933594 L 176.296875 210.882812 L 182.613281 210.882812 L 182.613281 217.199219 L 188.925781 217.199219 L 188.925781 223.519531 L 207.867188 223.519531 L 207.867188 217.199219 L 214.179688 217.199219 L 214.179688 210.882812 L 220.492188 210.882812 L 220.492188 191.933594 Z M 214.179688 191.933594 " fill-opacity="0.7" fill-rule="nonzero"/><g clip-path="url(#4d77c1fd6f)"><path fill="#000000" d="M 157.359375 210.882812 L 157.359375 204.566406 L 151.042969 204.566406 L 151.042969 198.25 L 132.105469 198.25 L 132.105469 204.566406 L 125.789062 204.566406 L 125.789062 210.882812 L 119.476562 210.882812 L 119.476562 229.835938 L 125.789062 229.835938 L 125.789062 236.152344 L 132.105469 236.152344 L 132.105469 242.46875 L 151.042969 242.46875 L 151.042969 236.152344 L 157.359375 236.152344 L 157.359375 229.835938 L 163.671875 229.835938 L 163.671875 210.882812 Z M 157.359375 210.882812 " fill-opacity="0.6" fill-rule="nonzero"/></g><path fill="#000000" d="M 100.535156 191.933594 L 100.535156 185.617188 L 94.222656 185.617188 L 94.222656 179.300781 L 75.28125 179.300781 L 75.28125 185.617188 L 68.96875 185.617188 L 68.96875 191.933594 L 62.65625 191.933594 L 62.65625 210.882812 L 68.96875 210.882812 L 68.96875 217.199219 L 75.28125 217.199219 L 75.28125 223.519531 L 94.222656 223.519531 L 94.222656 217.199219 L 100.535156 217.199219 L 100.535156 210.882812 L 106.851562 210.882812 L 106.851562 191.933594 Z M 100.535156 191.933594 " fill-opacity="0.5" fill-rule="nonzero"/><g clip-path="url(#cec670d7d2)"><path fill="#000000" d="M 81.597656 135.078125 L 81.597656 128.761719 L 75.28125 128.761719 L 75.28125 122.445312 L 56.34375 122.445312 L 56.34375 128.761719 L 50.027344 128.761719 L 50.027344 135.078125 L 43.714844 135.078125 L 43.714844 154.03125 L 50.027344 154.03125 L 50.027344 160.347656 L 56.34375 160.347656 L 56.34375 166.664062 L 75.28125 166.664062 L 75.28125 160.347656 L 81.597656 160.347656 L 81.597656 154.03125 L 87.910156 154.03125 L 87.910156 135.078125 Z M 81.597656 135.078125 " fill-opacity="0.4" fill-rule="nonzero"/></g><path fill="#000000" d="M 100.535156 78.226562 L 100.535156 71.910156 L 94.222656 71.910156 L 94.222656 65.59375 L 75.28125 65.59375 L 75.28125 71.910156 L 68.96875 71.910156 L 68.96875 78.226562 L 62.65625 78.226562 L 62.65625 97.179688 L 68.96875 97.179688 L 68.96875 103.496094 L 75.28125 103.496094 L 75.28125 109.8125 L 94.222656 109.8125 L 94.222656 103.496094 L 100.535156 103.496094 L 100.535156 97.179688 L 106.851562 97.179688 L 106.851562 78.226562 Z M 100.535156 78.226562 " fill-opacity="0.2" fill-rule="nonzero"/></svg>