<svg xmlns="http://www.w3.org/2000/svg" xmlns:xlink="http://www.w3.org/1999/xlink" width="377" zoomAndPan="magnify" viewBox="0 0 282.96 283.499989" height="377" preserveAspectRatio="xMidYMid meet" version="1.0"><defs><clipPath id="57473b3f18"><path d="M 0.230469 0 L 282.691406 0 L 282.691406 283 L 0.230469 283 Z M 0.230469 0 " clip-rule="nonzero"/></clipPath><clipPath id="0343bf0c58"><path d="M 95.71875 54.132812 L 187.804688 54.132812 L 187.804688 239.054688 L 95.71875 239.054688 Z M 95.71875 54.132812 " clip-rule="nonzero"/></clipPath></defs><g clip-path="url(#57473b3f18)"><path fill="#ffffff" d="M 0.230469 0 L 283.230469 0 L 283.230469 283 L 0.230469 283 Z M 0.230469 0 " fill-opacity="1" fill-rule="nonzero"/><path fill="#ffffff" d="M 0.230469 0 L 283.230469 0 L 283.230469 283 L 0.230469 283 Z M 0.230469 0 " fill-opacity="1" fill-rule="nonzero"/></g><g clip-path="url(#0343bf0c58)"><path fill="#000000" d="M 141.960938 54.527344 C 139.394531 54.789062 137.882812 54.988281 137.554688 55.117188 C 137.226562 55.25 136.636719 55.382812 135.847656 55.511719 C 134.992188 55.644531 134.53125 55.777344 134.398438 55.84375 C 134.269531 55.910156 133.875 56.105469 133.214844 56.238281 C 132.558594 56.367188 132.164062 56.566406 131.96875 56.699219 C 131.769531 56.828125 131.636719 56.894531 131.441406 56.894531 C 131.242188 56.894531 130.785156 57.027344 130.125 57.222656 C 129.46875 57.421875 128.941406 57.683594 128.613281 57.882812 C 128.351562 58.078125 127.890625 58.277344 127.367188 58.472656 C 126.839844 58.671875 126.511719 58.804688 126.445312 58.933594 C 126.378906 59.066406 126.117188 59.132812 125.722656 59.261719 C 125.328125 59.394531 124.933594 59.527344 124.605469 59.789062 C 124.277344 60.054688 123.816406 60.25 123.15625 60.449219 C 122.5 60.710938 122.171875 60.84375 122.039062 61.039062 C 121.910156 61.238281 121.644531 61.367188 121.316406 61.433594 C 120.988281 61.5 120.660156 61.699219 120.398438 61.960938 C 120.132812 62.222656 119.738281 62.421875 119.34375 62.617188 C 118.949219 62.816406 118.6875 62.949219 118.621094 63.144531 C 118.554688 63.34375 118.292969 63.472656 117.964844 63.605469 C 117.636719 63.738281 117.308594 63.933594 116.976562 64.261719 C 116.648438 64.527344 116.386719 64.722656 116.253906 64.789062 C 116.058594 64.789062 115.925781 64.921875 115.796875 65.117188 C 115.664062 65.316406 115.53125 65.449219 115.464844 65.449219 C 115.402344 65.449219 115.136719 65.644531 114.808594 65.972656 C 114.414062 66.300781 114.152344 66.5 114.019531 66.5 C 113.824219 66.566406 113.757812 66.632812 113.625 66.828125 C 113.496094 67.027344 113.296875 67.222656 112.96875 67.355469 C 112.574219 67.550781 112.3125 67.75 112.113281 68.011719 C 111.917969 68.277344 111.652344 68.539062 111.324219 68.671875 C 110.996094 68.867188 110.601562 69.195312 110.207031 69.722656 C 109.8125 70.25 109.417969 70.511719 109.222656 70.644531 C 109.023438 70.777344 108.828125 70.972656 108.695312 71.171875 C 108.5625 71.433594 108.167969 71.828125 107.578125 72.355469 C 106.921875 72.882812 106.527344 73.339844 106.394531 73.605469 C 106.195312 73.933594 106 74.132812 105.800781 74.261719 C 105.605469 74.394531 105.472656 74.527344 105.472656 74.65625 C 105.472656 74.789062 105.210938 75.183594 104.621094 75.839844 C 104.027344 76.5 103.699219 76.894531 103.699219 77.089844 C 103.632812 77.289062 103.4375 77.550781 103.042969 78.011719 C 102.648438 78.472656 102.449219 78.800781 102.382812 79 C 102.382812 79.195312 102.253906 79.328125 102.121094 79.460938 C 101.925781 79.527344 101.859375 79.65625 101.859375 79.789062 C 101.859375 79.855469 101.792969 79.984375 101.59375 80.183594 C 101.398438 80.378906 101.332031 80.578125 101.265625 80.839844 C 101.199219 81.105469 101.003906 81.5 100.675781 82.023438 C 100.347656 82.550781 100.082031 83.144531 99.820312 83.933594 C 99.558594 84.722656 99.359375 85.117188 99.292969 85.183594 C 99.164062 85.25 99.097656 85.445312 99.03125 85.710938 C 98.964844 85.972656 98.835938 86.300781 98.570312 86.628906 C 98.375 86.960938 98.175781 87.417969 98.109375 87.878906 C 98.046875 88.339844 97.914062 88.605469 97.847656 88.734375 C 97.714844 88.867188 97.585938 89.328125 97.386719 90.117188 C 97.191406 90.972656 97.058594 91.695312 96.796875 92.355469 C 96.535156 93.011719 96.46875 93.472656 96.46875 93.734375 C 96.46875 94 96.402344 94.261719 96.269531 94.523438 C 96.140625 94.789062 96.074219 95.050781 96.140625 95.378906 C 96.203125 95.707031 96.140625 95.839844 96.074219 95.90625 C 96.007812 95.972656 95.941406 96.828125 95.875 98.601562 C 95.808594 100.378906 95.808594 101.367188 95.941406 101.496094 C 96.074219 101.695312 96.074219 101.957031 96.074219 102.289062 C 96.074219 102.683594 96.140625 103.472656 96.269531 104.722656 C 96.402344 105.972656 96.597656 106.695312 96.796875 106.828125 C 96.992188 106.957031 96.992188 107.089844 96.925781 107.222656 C 96.863281 107.351562 96.863281 107.550781 96.863281 107.8125 C 96.863281 108.078125 96.925781 108.339844 97.058594 108.472656 C 97.191406 108.601562 97.257812 108.933594 97.320312 109.390625 C 97.386719 109.851562 97.453125 110.179688 97.585938 110.246094 C 97.714844 110.3125 97.78125 110.640625 97.847656 111.101562 C 97.914062 111.5625 98.046875 111.957031 98.175781 112.089844 C 98.308594 112.285156 98.441406 112.746094 98.703125 113.535156 C 98.898438 114.324219 99.097656 114.785156 99.230469 114.984375 C 99.359375 115.179688 99.492188 115.445312 99.621094 115.90625 C 99.753906 116.367188 99.886719 116.761719 100.082031 117.023438 C 100.28125 117.285156 100.476562 117.679688 100.742188 118.273438 C 101.003906 118.867188 101.199219 119.261719 101.332031 119.390625 C 101.464844 119.523438 101.660156 119.851562 101.792969 120.179688 C 101.925781 120.511719 102.054688 120.707031 102.121094 120.773438 C 102.253906 120.773438 102.320312 120.96875 102.449219 121.234375 C 102.582031 121.496094 102.84375 121.824219 103.171875 122.15625 C 103.566406 122.484375 103.699219 122.746094 103.765625 122.945312 C 103.765625 123.140625 103.960938 123.339844 104.289062 123.601562 C 104.621094 123.863281 104.882812 124.195312 105.144531 124.523438 C 105.40625 124.851562 105.605469 125.050781 105.867188 125.179688 C 106.066406 125.3125 106.328125 125.445312 106.527344 125.707031 C 106.722656 125.96875 107.117188 126.363281 107.773438 126.824219 C 108.433594 127.285156 108.957031 127.613281 109.484375 127.878906 C 109.945312 128.140625 110.273438 128.339844 110.46875 128.535156 C 110.667969 128.734375 110.929688 128.863281 111.128906 128.929688 C 111.390625 128.996094 111.585938 129.128906 111.652344 129.257812 C 111.71875 129.390625 111.917969 129.523438 112.179688 129.652344 C 112.441406 129.785156 112.574219 129.851562 112.574219 129.917969 C 112.574219 129.984375 112.707031 130.050781 112.902344 130.179688 C 113.101562 130.3125 113.363281 130.445312 113.625 130.707031 C 113.886719 130.96875 114.085938 131.101562 114.21875 131.101562 C 114.28125 131.101562 114.347656 131.101562 114.414062 131.101562 C 114.414062 131.167969 114.414062 131.234375 114.414062 131.234375 C 114.414062 131.300781 114.546875 131.429688 114.875 131.628906 C 115.203125 131.824219 115.402344 132.023438 115.597656 132.285156 C 115.796875 132.546875 115.992188 132.679688 116.125 132.746094 C 116.253906 132.8125 116.519531 133.074219 116.847656 133.667969 C 117.242188 134.257812 117.503906 134.589844 117.636719 134.71875 C 117.832031 134.785156 118.03125 135.3125 118.292969 136.167969 C 118.621094 137.023438 118.753906 138.074219 118.820312 139.257812 C 118.886719 140.507812 118.886719 141.167969 118.753906 141.363281 C 118.621094 141.5625 118.554688 141.824219 118.492188 142.285156 C 118.425781 142.746094 118.292969 143.207031 118.03125 143.730469 C 117.765625 144.257812 117.570312 144.585938 117.308594 144.851562 C 117.042969 145.046875 116.847656 145.3125 116.78125 145.574219 C 116.648438 145.835938 116.386719 146.296875 115.925781 146.957031 C 115.464844 147.613281 115.203125 148.007812 115.203125 148.074219 C 115.203125 148.140625 115.070312 148.273438 114.875 148.402344 C 114.675781 148.535156 114.480469 148.796875 114.347656 149.191406 C 114.21875 149.585938 114.085938 149.851562 113.886719 150.046875 C 113.691406 150.246094 113.625 150.3125 113.625 150.441406 C 113.625 150.574219 113.558594 150.640625 113.496094 150.640625 C 113.429688 150.640625 113.296875 150.769531 113.296875 150.96875 C 113.296875 151.167969 113.164062 151.296875 113.035156 151.496094 C 112.902344 151.625 112.835938 151.824219 112.769531 152.085938 C 112.769531 152.351562 112.574219 152.679688 112.375 153.140625 C 112.179688 153.601562 111.980469 154.191406 111.917969 154.851562 C 111.851562 155.574219 111.71875 156.035156 111.585938 156.296875 C 111.457031 156.5625 111.390625 156.824219 111.457031 157.085938 C 111.457031 157.21875 111.523438 157.351562 111.523438 157.480469 C 111.523438 157.480469 111.457031 157.480469 111.457031 157.480469 C 111.390625 157.480469 111.390625 157.480469 111.324219 157.480469 C 111.324219 157.875 111.324219 158.269531 111.390625 158.664062 C 111.457031 159.457031 111.457031 159.914062 111.523438 159.980469 C 111.585938 160.113281 111.652344 160.507812 111.652344 161.230469 C 111.652344 161.953125 111.71875 162.351562 111.785156 162.351562 C 111.851562 162.351562 111.980469 163.269531 112.113281 165.046875 C 112.3125 166.757812 112.3125 168.269531 112.113281 169.519531 C 111.917969 170.769531 111.851562 171.429688 111.785156 171.492188 C 111.71875 171.558594 111.652344 171.757812 111.652344 172.21875 C 111.585938 172.613281 111.523438 172.808594 111.457031 172.875 C 111.324219 172.941406 111.257812 173.335938 111.191406 173.992188 C 111.128906 174.652344 111.0625 175.046875 110.929688 175.046875 C 110.800781 175.113281 110.800781 175.308594 110.800781 175.703125 C 110.800781 176.097656 110.734375 176.296875 110.667969 176.363281 C 110.601562 176.429688 110.535156 177.28125 110.46875 178.929688 C 110.40625 180.574219 110.40625 181.425781 110.46875 181.492188 C 110.535156 181.558594 110.535156 181.757812 110.535156 182.019531 C 110.46875 182.347656 110.535156 182.546875 110.667969 182.742188 C 110.800781 182.941406 110.863281 183.269531 110.929688 183.730469 C 110.996094 184.191406 111.0625 184.453125 111.128906 184.453125 C 111.191406 184.519531 111.257812 184.652344 111.257812 184.847656 C 111.324219 185.113281 111.390625 185.242188 111.457031 185.308594 C 111.585938 185.375 111.652344 185.703125 111.785156 186.230469 C 111.917969 186.757812 112.046875 187.085938 112.113281 187.152344 C 112.246094 187.214844 112.246094 187.347656 112.246094 187.613281 C 112.246094 187.875 112.3125 188.070312 112.507812 188.269531 C 112.707031 188.464844 112.769531 188.664062 112.769531 188.796875 C 112.769531 188.925781 112.835938 189.191406 112.96875 189.386719 C 113.101562 189.652344 113.230469 190.175781 113.296875 191.097656 C 113.429688 192.019531 113.429688 192.742188 113.363281 193.335938 C 113.296875 193.925781 113.230469 194.253906 113.101562 194.453125 C 113.035156 194.652344 112.902344 194.980469 112.902344 195.503906 C 112.835938 196.03125 112.835938 196.296875 112.769531 196.296875 C 112.707031 196.296875 112.640625 196.425781 112.507812 196.753906 C 112.375 197.019531 112.3125 197.480469 112.246094 198.003906 C 112.179688 198.597656 112.113281 198.859375 112.046875 198.925781 C 111.980469 198.992188 111.917969 199.125 111.917969 199.386719 C 111.917969 199.648438 111.917969 199.78125 111.785156 199.914062 C 111.71875 199.980469 111.71875 200.109375 111.71875 200.242188 C 111.71875 200.308594 111.785156 200.441406 111.785156 200.503906 C 111.785156 200.503906 111.71875 200.503906 111.71875 200.503906 C 111.652344 200.503906 111.585938 200.703125 111.457031 201.03125 C 111.324219 201.359375 111.324219 201.691406 111.324219 202.085938 C 111.324219 202.480469 111.324219 202.742188 111.191406 203.003906 C 111.0625 203.269531 110.996094 203.53125 110.996094 203.730469 C 110.996094 203.925781 110.929688 204.125 110.863281 204.125 C 110.800781 204.125 110.800781 204.320312 110.800781 204.648438 C 110.800781 204.980469 110.800781 205.4375 110.667969 206.03125 C 110.535156 206.625 110.535156 207.808594 110.601562 209.519531 C 110.667969 211.230469 110.734375 212.148438 110.863281 212.347656 C 110.929688 212.542969 111.128906 213.332031 111.324219 214.847656 C 111.523438 216.359375 111.652344 217.148438 111.71875 217.148438 C 111.785156 217.148438 111.917969 217.476562 112.179688 218.203125 C 112.441406 218.925781 112.507812 219.386719 112.441406 219.519531 C 112.441406 219.714844 112.441406 219.847656 112.574219 219.976562 C 112.707031 220.109375 112.835938 220.4375 112.902344 220.898438 C 113.035156 221.359375 113.164062 221.621094 113.296875 221.820312 C 113.429688 222.015625 113.558594 222.148438 113.558594 222.347656 C 113.558594 222.542969 113.625 222.808594 113.824219 223.003906 C 114.019531 223.203125 114.085938 223.464844 114.152344 223.726562 C 114.21875 224.058594 114.347656 224.253906 114.480469 224.453125 C 114.613281 224.648438 114.808594 224.976562 115.007812 225.503906 C 115.203125 226.03125 115.402344 226.425781 115.664062 226.6875 C 115.925781 226.953125 115.992188 227.148438 116.058594 227.347656 C 116.125 227.542969 116.253906 227.675781 116.585938 227.9375 C 116.914062 228.203125 117.042969 228.398438 117.109375 228.597656 C 117.175781 228.792969 117.308594 228.992188 117.503906 229.121094 C 117.703125 229.320312 117.832031 229.453125 117.832031 229.648438 C 117.898438 229.847656 118.03125 230.042969 118.292969 230.304688 C 118.554688 230.570312 118.753906 230.699219 118.886719 230.765625 C 119.015625 230.765625 119.082031 230.898438 119.148438 231.03125 C 119.214844 231.160156 119.34375 231.359375 119.542969 231.425781 C 119.738281 231.492188 120.003906 231.753906 120.265625 232.082031 C 120.527344 232.476562 120.726562 232.675781 120.921875 232.675781 C 121.121094 232.675781 121.1875 232.742188 121.25 232.871094 C 121.25 232.9375 121.449219 233.070312 121.710938 233.199219 C 121.976562 233.332031 122.171875 233.464844 122.304688 233.660156 C 122.433594 233.859375 122.566406 233.925781 122.761719 233.925781 C 122.960938 233.992188 123.027344 233.992188 123.027344 234.054688 C 123.027344 234.054688 123.027344 234.121094 123.027344 234.121094 C 123.09375 234.121094 123.15625 234.121094 123.222656 234.121094 C 123.355469 234.121094 123.617188 234.320312 123.945312 234.648438 C 124.277344 234.976562 125.128906 235.503906 126.445312 236.160156 C 127.761719 236.820312 128.546875 237.148438 128.746094 237.214844 C 128.941406 237.214844 129.074219 237.28125 129.140625 237.410156 C 129.207031 237.476562 129.335938 237.609375 129.46875 237.675781 C 129.601562 237.738281 129.796875 237.738281 129.996094 237.738281 C 130.191406 237.675781 130.324219 237.738281 130.390625 237.804688 C 130.457031 237.871094 130.71875 238.003906 131.242188 238.070312 C 131.769531 238.136719 132.164062 238.265625 132.492188 238.398438 C 132.820312 238.53125 133.28125 238.660156 133.9375 238.726562 C 134.597656 238.792969 134.992188 238.859375 135.1875 238.792969 C 135.453125 238.792969 135.582031 238.792969 135.648438 238.859375 C 135.714844 238.925781 136.042969 238.925781 136.636719 238.925781 C 137.226562 238.925781 137.621094 238.925781 137.753906 238.988281 C 137.882812 239.054688 138.015625 239.054688 138.015625 238.988281 C 138.015625 238.925781 138.410156 238.925781 139 238.925781 C 139.59375 238.925781 139.988281 238.859375 140.117188 238.792969 C 140.25 238.726562 140.449219 238.660156 140.777344 238.726562 C 141.039062 238.726562 142.089844 238.464844 143.800781 237.9375 C 145.507812 237.34375 146.628906 236.949219 147.152344 236.554688 C 147.679688 236.226562 148.074219 235.964844 148.402344 235.898438 C 148.730469 235.832031 148.929688 235.636719 149.058594 235.503906 C 149.125 235.304688 149.324219 235.175781 149.585938 235.109375 C 149.847656 235.042969 150.046875 234.84375 150.175781 234.648438 C 150.308594 234.449219 150.636719 234.121094 151.164062 233.726562 C 151.6875 233.332031 152.214844 232.871094 152.675781 232.28125 C 153.136719 231.6875 153.464844 231.359375 153.660156 231.226562 C 153.859375 231.097656 153.925781 230.964844 153.925781 230.898438 C 153.925781 230.832031 154.121094 230.570312 154.449219 230.175781 C 154.777344 229.847656 155.042969 229.453125 155.171875 229.054688 C 155.304688 228.660156 155.4375 228.398438 155.632812 228.332031 C 155.832031 228.203125 155.960938 228.003906 156.160156 227.609375 C 156.355469 227.214844 156.488281 226.953125 156.6875 226.753906 C 156.882812 226.554688 156.949219 226.425781 156.882812 226.226562 C 156.816406 226.03125 156.949219 225.765625 157.210938 225.371094 C 157.472656 224.976562 157.738281 224.320312 158 223.398438 C 158.261719 222.476562 158.460938 222.015625 158.527344 221.953125 C 158.59375 221.886719 158.65625 221.753906 158.65625 221.492188 C 158.65625 221.226562 158.722656 221.03125 158.789062 220.832031 C 158.921875 220.636719 158.988281 220.308594 158.988281 219.847656 C 158.988281 219.386719 159.117188 218.726562 159.316406 217.9375 C 159.511719 217.148438 159.644531 216.226562 159.710938 215.242188 C 159.773438 214.253906 159.773438 213.726562 159.710938 213.726562 C 159.644531 213.726562 159.644531 213.464844 159.644531 213.070312 C 159.710938 212.609375 159.644531 212.28125 159.511719 212.082031 C 159.445312 211.820312 159.382812 211.558594 159.445312 211.292969 C 159.511719 211.03125 159.445312 210.832031 159.382812 210.769531 C 159.316406 210.703125 159.25 210.375 159.25 209.847656 C 159.183594 209.320312 159.117188 208.792969 158.921875 208.332031 C 158.722656 207.875 158.527344 207.347656 158.394531 206.6875 C 158.261719 206.03125 158.132812 205.703125 158.066406 205.703125 C 158 205.636719 157.867188 205.503906 157.867188 205.308594 C 157.804688 205.042969 157.605469 204.585938 157.277344 203.730469 C 156.949219 202.875 156.75 202.414062 156.75 202.214844 C 156.75 202.019531 156.6875 201.886719 156.554688 201.820312 C 156.421875 201.753906 156.160156 201.097656 155.832031 199.847656 C 155.503906 198.597656 155.304688 197.941406 155.304688 197.742188 C 155.371094 197.546875 155.304688 197.414062 155.238281 197.347656 C 155.171875 197.28125 155.109375 197.085938 155.109375 196.625 C 155.109375 196.230469 155.109375 195.441406 155.171875 194.191406 C 155.238281 193.003906 155.371094 192.152344 155.4375 191.691406 C 155.503906 191.230469 155.632812 190.769531 155.632812 190.308594 C 155.632812 189.847656 155.765625 188.992188 155.960938 187.808594 C 156.226562 186.625 156.355469 185.636719 156.355469 185.046875 C 156.355469 184.453125 156.421875 183.992188 156.554688 183.796875 C 156.6875 183.597656 156.6875 183.335938 156.6875 183.070312 C 156.6875 182.808594 156.6875 182.546875 156.75 182.414062 C 156.882812 182.28125 156.882812 182.085938 156.816406 181.820312 C 156.75 181.558594 156.75 181.097656 156.75 180.574219 C 156.816406 179.980469 156.816406 179.652344 156.882812 179.585938 C 156.949219 179.519531 156.949219 178.992188 156.949219 178.007812 C 156.949219 177.019531 157.015625 176.429688 157.078125 176.296875 C 157.144531 176.097656 157.277344 175.308594 157.277344 173.863281 C 157.277344 172.414062 157.410156 171.492188 157.539062 171.164062 C 157.671875 170.835938 157.738281 170.507812 157.738281 170.179688 C 157.738281 169.847656 157.804688 169.585938 157.933594 169.257812 C 158.066406 168.992188 158.132812 168.730469 158.132812 168.46875 C 158.132812 168.203125 158.199219 168.074219 158.261719 167.941406 C 158.328125 167.875 158.460938 167.679688 158.527344 167.414062 C 158.59375 167.152344 158.59375 166.953125 158.59375 166.824219 C 158.527344 166.691406 158.59375 166.625 158.65625 166.558594 C 158.789062 166.496094 158.988281 166.035156 159.382812 165.113281 C 159.773438 164.191406 160.167969 163.535156 160.5 163.074219 C 160.828125 162.613281 161.023438 162.351562 161.023438 162.285156 C 161.023438 162.21875 161.089844 162.085938 161.289062 161.953125 C 161.484375 161.824219 161.550781 161.691406 161.550781 161.496094 C 161.550781 161.296875 161.617188 161.230469 161.683594 161.230469 C 161.746094 161.230469 161.878906 161.101562 162.011719 160.769531 C 162.207031 160.507812 162.339844 160.246094 162.535156 160.179688 C 162.734375 160.113281 162.800781 159.980469 162.800781 159.851562 C 162.800781 159.71875 162.929688 159.519531 163.195312 159.324219 C 163.457031 159.125 163.71875 158.863281 163.917969 158.535156 C 164.113281 158.207031 164.3125 158.007812 164.441406 158.007812 C 164.574219 158.007812 164.707031 157.875 164.707031 157.746094 C 164.773438 157.613281 164.902344 157.546875 165.035156 157.480469 C 165.167969 157.414062 165.296875 157.351562 165.296875 157.21875 C 165.296875 157.085938 165.496094 156.957031 165.824219 156.757812 C 166.152344 156.558594 166.613281 156.230469 167.074219 155.769531 C 167.53125 155.3125 167.863281 155.046875 167.992188 155.046875 C 168.125 155.046875 168.253906 154.914062 168.320312 154.785156 C 168.386719 154.652344 168.585938 154.519531 168.847656 154.457031 C 169.109375 154.324219 169.375 154.191406 169.570312 153.929688 C 169.832031 153.664062 170.03125 153.46875 170.292969 153.402344 C 170.558594 153.335938 170.820312 153.140625 171.015625 152.941406 C 171.214844 152.746094 171.609375 152.480469 172.132812 152.21875 C 172.726562 151.957031 173.121094 151.625 173.449219 151.296875 C 173.777344 150.96875 174.171875 150.640625 174.632812 150.375 C 175.09375 150.113281 175.488281 149.851562 175.683594 149.519531 C 175.882812 149.191406 176.277344 148.929688 176.738281 148.667969 C 177.195312 148.402344 177.460938 148.140625 177.65625 148.007812 C 177.855469 147.8125 177.917969 147.679688 177.917969 147.546875 C 177.917969 147.417969 178.050781 147.351562 178.183594 147.285156 C 178.378906 147.152344 178.511719 147.023438 178.578125 146.890625 C 178.644531 146.757812 178.707031 146.625 178.839844 146.625 C 178.972656 146.625 179.234375 146.296875 179.695312 145.640625 C 180.15625 144.980469 180.613281 144.457031 181.007812 143.996094 C 181.402344 143.601562 181.734375 143.140625 181.863281 142.8125 C 182.0625 142.417969 182.257812 142.152344 182.457031 141.890625 C 182.652344 141.628906 182.914062 141.234375 183.179688 140.640625 C 183.441406 140.046875 183.640625 139.71875 183.769531 139.585938 C 183.902344 139.457031 183.96875 139.390625 183.902344 139.324219 C 183.835938 139.257812 183.96875 139.0625 184.230469 138.601562 C 184.492188 138.207031 184.691406 137.878906 184.757812 137.546875 C 184.824219 137.21875 184.953125 136.957031 185.085938 136.691406 C 185.28125 136.496094 185.347656 136.234375 185.347656 136.035156 C 185.347656 135.839844 185.414062 135.574219 185.609375 135.3125 C 185.808594 135.046875 185.875 134.785156 185.875 134.523438 C 185.875 134.257812 185.941406 134.0625 186.070312 133.996094 C 186.203125 133.929688 186.335938 133.402344 186.597656 132.546875 C 186.792969 131.695312 186.925781 131.234375 187.058594 131.035156 C 187.125 130.902344 187.1875 130.773438 187.125 130.574219 C 187.058594 130.378906 187.1875 129.652344 187.386719 128.339844 C 187.648438 127.023438 187.714844 125.378906 187.648438 123.46875 C 187.582031 121.5625 187.453125 120.113281 187.125 118.996094 C 186.859375 117.945312 186.730469 117.285156 186.730469 116.957031 C 186.730469 116.628906 186.664062 116.367188 186.53125 116.101562 C 186.398438 115.839844 186.335938 115.640625 186.398438 115.378906 C 186.464844 115.117188 186.269531 114.324219 185.875 112.945312 C 185.480469 111.628906 185.28125 110.773438 185.347656 110.578125 C 185.414062 110.378906 185.347656 109.984375 185.21875 109.523438 C 185.085938 109.0625 185.019531 108.667969 185.085938 108.40625 C 185.085938 108.140625 185.085938 107.8125 184.953125 107.550781 C 184.886719 107.285156 184.824219 107.023438 184.886719 106.828125 C 184.953125 106.628906 184.953125 106.433594 184.824219 106.300781 C 184.691406 106.167969 184.691406 105.773438 184.691406 105.183594 C 184.757812 104.589844 184.691406 104.261719 184.625 104.261719 C 184.558594 104.195312 184.492188 104.0625 184.492188 103.734375 C 184.429688 103.40625 184.429688 102.617188 184.492188 101.367188 C 184.492188 100.117188 184.558594 99.457031 184.625 99.457031 C 184.691406 99.457031 184.757812 99.328125 184.757812 99.128906 C 184.824219 98.933594 184.824219 98.273438 184.824219 97.089844 C 184.824219 95.90625 184.886719 95.25 184.953125 95.050781 C 185.019531 94.851562 185.085938 94.589844 185.019531 94.195312 C 184.953125 93.800781 184.953125 93.472656 185.019531 93.078125 C 185.085938 92.683594 185.085938 92.550781 185.152344 92.484375 C 185.21875 92.484375 185.21875 92.023438 185.21875 91.300781 C 185.152344 90.511719 185.21875 90.050781 185.28125 89.789062 C 185.347656 89.523438 185.347656 89.261719 185.28125 88.867188 C 185.21875 88.472656 185.21875 87.617188 185.21875 86.300781 C 185.21875 84.984375 185.152344 84.128906 185.085938 83.800781 C 185.019531 83.472656 184.953125 83.144531 185.019531 82.75 C 185.019531 82.355469 184.953125 81.828125 184.757812 81.171875 C 184.558594 80.511719 184.429688 79.984375 184.429688 79.65625 C 184.429688 79.328125 184.230469 78.539062 183.835938 77.355469 C 183.441406 76.105469 183.246094 75.382812 183.246094 75.183594 C 183.246094 74.984375 183.113281 74.722656 182.914062 74.527344 C 182.71875 74.328125 182.585938 74 182.585938 73.734375 C 182.519531 73.472656 182.390625 73.078125 182.128906 72.617188 C 181.863281 72.15625 181.734375 71.761719 181.601562 71.5 C 181.535156 71.171875 181.46875 71.039062 181.339844 70.972656 C 181.273438 70.90625 180.945312 70.382812 180.484375 69.460938 C 180.023438 68.539062 179.5625 67.882812 179.167969 67.421875 C 178.773438 67.027344 178.445312 66.566406 178.25 66.238281 C 178.050781 65.84375 177.855469 65.644531 177.722656 65.644531 C 177.589844 65.644531 177.328125 65.382812 177 64.921875 C 176.605469 64.460938 176.40625 64.261719 176.277344 64.261719 C 176.144531 64.261719 176.011719 64.132812 175.75 63.867188 C 175.488281 63.605469 175.355469 63.472656 175.222656 63.472656 C 175.09375 63.472656 175.027344 63.40625 174.960938 63.210938 C 174.828125 63.011719 174.699219 62.882812 174.566406 62.882812 C 174.371094 62.816406 174.304688 62.75 174.238281 62.617188 C 174.171875 62.488281 173.910156 62.289062 173.382812 61.960938 C 172.859375 61.632812 172.464844 61.367188 172.132812 61.039062 C 171.804688 60.710938 171.542969 60.511719 171.34375 60.511719 C 171.148438 60.511719 171.082031 60.449219 170.953125 60.316406 C 170.886719 60.183594 170.621094 60.054688 170.226562 59.921875 C 169.832031 59.789062 169.636719 59.65625 169.503906 59.527344 C 169.4375 59.394531 169.242188 59.261719 168.914062 59.199219 C 168.585938 59.132812 168.320312 59 168.191406 58.867188 C 168.058594 58.738281 167.796875 58.605469 167.46875 58.539062 C 167.136719 58.472656 166.941406 58.40625 166.941406 58.277344 C 166.875 58.210938 166.808594 58.144531 166.679688 58.144531 C 166.546875 58.144531 166.347656 58.078125 166.21875 57.949219 C 166.085938 57.816406 165.757812 57.683594 165.167969 57.554688 C 164.574219 57.421875 164.3125 57.289062 164.3125 57.289062 C 164.3125 57.222656 164.3125 57.222656 164.3125 57.15625 C 164.246094 57.15625 164.113281 57.15625 164.046875 57.15625 C 163.851562 57.15625 163.785156 57.09375 163.71875 57.027344 C 163.652344 56.894531 163.324219 56.828125 162.800781 56.699219 C 162.273438 56.632812 161.945312 56.5 161.878906 56.433594 C 161.8125 56.367188 161.417969 56.238281 160.828125 56.171875 C 160.234375 56.105469 159.90625 55.972656 159.773438 55.910156 C 159.644531 55.777344 159.511719 55.777344 159.382812 55.777344 C 159.25 55.84375 159.117188 55.777344 158.921875 55.644531 C 158.722656 55.511719 158.460938 55.382812 158 55.316406 C 157.539062 55.25 157.210938 55.183594 156.949219 55.25 C 156.75 55.316406 156.421875 55.25 156.09375 55.117188 C 155.765625 54.988281 155.238281 54.921875 154.449219 54.855469 C 153.726562 54.789062 153.265625 54.722656 153.203125 54.660156 C 153.136719 54.59375 152.9375 54.59375 152.675781 54.59375 C 152.414062 54.59375 152.148438 54.59375 152.019531 54.527344 C 151.886719 54.394531 151.558594 54.328125 151.097656 54.328125 C 150.636719 54.328125 150.175781 54.328125 149.914062 54.394531 C 149.652344 54.460938 149.453125 54.460938 149.386719 54.394531 C 149.324219 54.328125 149.125 54.328125 148.664062 54.328125 C 148.203125 54.328125 147.941406 54.328125 147.679688 54.261719 C 147.417969 54.132812 147.085938 54.132812 146.757812 54.199219 C 146.429688 54.261719 146.035156 54.261719 145.640625 54.199219 C 146.101562 54.132812 144.589844 54.265625 141.960938 54.527344 Z M 149.058594 56.367188 C 150.964844 56.433594 152.082031 56.5 152.28125 56.632812 C 152.476562 56.761719 152.808594 56.761719 153.203125 56.761719 C 153.597656 56.699219 153.925781 56.761719 154.054688 56.828125 C 154.253906 56.894531 154.714844 57.027344 155.371094 57.027344 C 156.027344 57.027344 156.621094 57.160156 157.210938 57.355469 C 157.804688 57.554688 158.199219 57.617188 158.328125 57.617188 C 158.460938 57.617188 158.65625 57.617188 158.789062 57.75 C 158.921875 57.816406 159.183594 57.949219 159.578125 57.949219 C 159.972656 58.011719 160.433594 58.078125 160.828125 58.277344 C 161.289062 58.472656 161.617188 58.605469 161.878906 58.605469 C 162.140625 58.605469 162.339844 58.671875 162.46875 58.804688 C 162.667969 58.933594 162.800781 59 162.996094 59 C 163.195312 59 163.324219 59.066406 163.390625 59.132812 C 163.457031 59.199219 163.589844 59.261719 163.71875 59.199219 C 163.785156 59.199219 163.851562 59.132812 163.917969 59.132812 C 163.917969 59.199219 163.917969 59.199219 163.917969 59.199219 C 163.917969 59.261719 163.917969 59.261719 163.917969 59.328125 C 163.984375 59.328125 164.046875 59.261719 164.046875 59.261719 C 164.113281 59.261719 164.378906 59.328125 164.773438 59.59375 C 165.167969 59.789062 165.558594 59.988281 166.019531 60.117188 C 166.414062 60.183594 166.742188 60.316406 166.875 60.449219 C 167.007812 60.578125 167.269531 60.710938 167.664062 60.777344 C 168.058594 60.84375 168.320312 60.972656 168.386719 61.105469 C 168.453125 61.238281 168.714844 61.367188 169.109375 61.566406 C 169.503906 61.761719 169.703125 61.828125 169.769531 61.960938 C 169.832031 62.09375 170.03125 62.15625 170.292969 62.222656 C 170.558594 62.289062 170.753906 62.421875 170.886719 62.550781 C 171.015625 62.683594 171.410156 63.011719 172.132812 63.40625 C 172.859375 63.800781 173.382812 64.132812 173.648438 64.460938 C 173.910156 64.789062 174.105469 64.921875 174.304688 64.988281 C 174.5 65.050781 174.632812 65.183594 174.828125 65.449219 C 175.027344 65.710938 175.222656 65.90625 175.554688 66.105469 C 175.816406 66.300781 176.078125 66.5 176.277344 66.828125 C 176.472656 67.15625 176.800781 67.421875 177.128906 67.683594 C 177.460938 67.945312 177.722656 68.210938 177.855469 68.539062 C 177.984375 68.867188 178.183594 69.066406 178.378906 69.195312 C 178.578125 69.328125 178.773438 69.589844 179.101562 70.117188 C 179.433594 70.644531 179.628906 71.039062 179.761719 71.433594 C 179.824219 71.761719 179.957031 72.027344 180.089844 72.089844 C 180.21875 72.15625 180.351562 72.421875 180.417969 72.75 C 180.550781 73.078125 180.679688 73.339844 180.8125 73.539062 C 180.945312 73.734375 181.074219 74.066406 181.207031 74.589844 C 181.273438 75.117188 181.46875 75.644531 181.796875 76.234375 C 182.0625 76.828125 182.191406 77.222656 182.191406 77.355469 C 182.128906 77.484375 182.191406 77.683594 182.324219 77.878906 C 182.457031 78.078125 182.523438 78.339844 182.523438 78.605469 C 182.523438 78.867188 182.585938 79.195312 182.785156 79.527344 C 182.980469 79.855469 183.046875 80.25 183.046875 80.644531 C 183.046875 81.105469 183.113281 81.367188 183.179688 81.566406 C 183.246094 81.761719 183.375 82.222656 183.441406 83.078125 C 183.507812 83.933594 183.640625 84.328125 183.703125 84.394531 C 183.769531 84.460938 183.769531 84.65625 183.703125 84.917969 C 183.640625 85.25 183.640625 85.511719 183.769531 85.773438 C 183.835938 86.039062 183.902344 86.628906 183.835938 87.617188 C 183.835938 88.605469 183.835938 89.128906 183.902344 89.195312 C 183.96875 89.328125 183.96875 89.394531 183.902344 89.589844 C 183.835938 89.789062 183.769531 90.3125 183.769531 91.300781 C 183.769531 92.289062 183.703125 92.8125 183.703125 92.878906 C 183.640625 92.945312 183.640625 93.273438 183.640625 93.933594 C 183.640625 94.589844 183.640625 95.050781 183.640625 95.378906 C 183.574219 95.707031 183.507812 95.972656 183.441406 96.101562 C 183.308594 96.300781 183.308594 96.5 183.375 96.828125 C 183.441406 97.15625 183.441406 97.351562 183.308594 97.550781 C 183.246094 97.683594 183.179688 98.078125 183.246094 98.601562 C 183.308594 99.195312 183.246094 99.523438 183.179688 99.523438 C 183.113281 99.589844 183.046875 100.707031 183.046875 102.878906 C 183.046875 105.050781 183.113281 106.367188 183.179688 106.628906 C 183.246094 106.890625 183.308594 107.417969 183.308594 108.078125 C 183.308594 108.734375 183.441406 109.523438 183.640625 110.378906 C 183.835938 111.234375 184.035156 112.023438 184.035156 112.617188 C 184.035156 113.207031 184.164062 113.667969 184.296875 114.0625 C 184.492188 114.390625 184.558594 114.785156 184.558594 115.117188 C 184.558594 115.511719 184.625 115.972656 184.824219 116.496094 C 185.019531 117.023438 185.152344 117.617188 185.152344 118.140625 C 185.21875 118.667969 185.28125 119.195312 185.480469 119.785156 C 185.675781 120.378906 185.742188 120.839844 185.742188 121.300781 C 185.742188 121.761719 185.742188 122.023438 185.808594 122.15625 C 185.941406 122.351562 185.941406 122.550781 185.941406 122.878906 C 185.875 123.140625 185.941406 123.40625 186.003906 123.535156 C 186.070312 123.667969 186.070312 124.324219 186.070312 125.378906 C 186.070312 126.496094 186.003906 127.351562 185.808594 127.945312 C 185.609375 128.535156 185.546875 129.0625 185.546875 129.457031 C 185.546875 129.851562 185.480469 130.179688 185.347656 130.378906 C 185.21875 130.574219 185.152344 130.96875 185.085938 131.429688 C 185.085938 131.890625 185.019531 132.152344 184.886719 132.21875 C 184.757812 132.285156 184.691406 132.484375 184.691406 132.8125 C 184.691406 133.140625 184.558594 133.339844 184.492188 133.402344 C 184.429688 133.46875 184.296875 133.734375 184.230469 134.195312 C 184.097656 134.652344 184.035156 134.917969 183.96875 134.984375 C 183.835938 135.046875 183.769531 135.246094 183.703125 135.574219 C 183.640625 135.902344 183.574219 136.101562 183.507812 136.101562 C 183.441406 136.101562 183.375 136.296875 183.308594 136.628906 C 183.246094 136.957031 183.113281 137.21875 182.980469 137.351562 C 182.785156 137.417969 182.71875 137.613281 182.652344 137.941406 C 182.585938 138.207031 182.457031 138.535156 182.128906 138.929688 C 181.863281 139.324219 181.734375 139.585938 181.601562 139.851562 C 181.535156 140.113281 181.140625 140.707031 180.484375 141.5625 C 179.761719 142.417969 179.433594 142.941406 179.496094 143.074219 C 179.496094 143.207031 179.433594 143.335938 179.167969 143.601562 C 178.90625 143.796875 178.707031 143.996094 178.578125 144.257812 C 178.445312 144.523438 178.3125 144.652344 178.117188 144.71875 C 177.917969 144.785156 177.855469 144.917969 177.789062 145.113281 C 177.722656 145.3125 177.523438 145.574219 177.195312 145.96875 C 176.867188 146.363281 176.671875 146.5625 176.472656 146.5625 C 176.34375 146.5625 176.144531 146.757812 175.816406 147.152344 C 175.488281 147.546875 175.160156 147.8125 174.765625 148.074219 C 174.371094 148.273438 174.105469 148.46875 174.039062 148.667969 C 173.910156 148.863281 173.648438 149.0625 173.1875 149.257812 C 172.726562 149.523438 172.464844 149.652344 172.464844 149.785156 C 172.398438 149.917969 172.199219 150.113281 171.675781 150.3125 C 171.148438 150.507812 170.886719 150.769531 170.753906 150.96875 C 170.621094 151.167969 170.359375 151.296875 170.03125 151.429688 C 169.703125 151.5625 169.503906 151.691406 169.375 151.824219 C 169.242188 152.019531 169.109375 152.085938 168.980469 152.085938 C 168.847656 152.085938 168.585938 152.285156 168.253906 152.613281 C 167.992188 152.941406 167.664062 153.140625 167.402344 153.207031 C 167.136719 153.269531 167.007812 153.402344 166.875 153.46875 C 166.742188 153.535156 166.679688 153.664062 166.480469 153.730469 C 166.285156 153.796875 166.019531 153.996094 165.691406 154.390625 C 165.363281 154.71875 164.835938 155.179688 164.179688 155.640625 C 163.457031 156.101562 163.128906 156.363281 163.128906 156.496094 C 163.128906 156.625 163.0625 156.757812 162.863281 156.757812 C 162.667969 156.824219 162.40625 157.085938 162.078125 157.613281 C 161.683594 158.140625 161.417969 158.402344 161.15625 158.535156 C 160.894531 158.664062 160.761719 158.796875 160.695312 158.996094 C 160.628906 159.191406 160.5625 159.257812 160.433594 159.324219 C 160.367188 159.324219 160.234375 159.457031 160.234375 159.585938 C 160.234375 159.785156 160.039062 159.980469 159.839844 160.179688 C 159.578125 160.441406 159.511719 160.574219 159.511719 160.703125 C 159.511719 160.835938 159.382812 160.96875 159.183594 161.101562 C 158.988281 161.230469 158.855469 161.429688 158.855469 161.625 C 158.855469 161.824219 158.722656 161.953125 158.527344 162.152344 C 158.328125 162.351562 158.132812 162.679688 157.867188 163.203125 C 157.605469 163.730469 157.472656 163.996094 157.34375 164.125 C 157.210938 164.191406 157.144531 164.390625 157.144531 164.652344 C 157.144531 164.914062 157.015625 165.179688 156.882812 165.375 C 156.683594 165.640625 156.554688 165.769531 156.554688 165.96875 C 156.554688 166.164062 156.488281 166.429688 156.292969 166.824219 C 156.09375 167.21875 155.960938 167.742188 155.832031 168.402344 C 155.765625 169.058594 155.632812 169.390625 155.566406 169.390625 C 155.566406 169.390625 155.503906 169.390625 155.503906 169.390625 C 155.503906 169.519531 155.503906 169.652344 155.503906 169.847656 C 155.503906 170.113281 155.4375 170.375 155.304688 170.574219 C 155.171875 170.769531 155.109375 170.96875 155.238281 171.230469 C 155.304688 171.492188 155.304688 171.953125 155.109375 172.546875 C 154.976562 173.136719 154.910156 173.535156 155.042969 173.730469 C 155.109375 173.929688 155.109375 174.058594 155.042969 174.125 C 154.976562 174.191406 154.976562 174.386719 154.976562 174.652344 C 154.976562 174.914062 154.976562 175.046875 154.910156 175.113281 C 154.84375 175.179688 154.777344 175.96875 154.777344 177.480469 C 154.714844 179.058594 154.714844 179.980469 154.582031 180.375 C 154.515625 180.769531 154.382812 181.625 154.320312 182.941406 C 154.253906 184.320312 154.1875 185.046875 154.054688 185.242188 C 153.988281 185.441406 153.925781 185.703125 153.988281 185.96875 C 154.054688 186.230469 153.988281 186.425781 153.925781 186.492188 C 153.859375 186.558594 153.859375 186.625 153.859375 186.820312 C 153.925781 187.019531 153.859375 187.214844 153.792969 187.480469 C 153.726562 187.675781 153.660156 187.875 153.726562 188.070312 C 153.726562 188.269531 153.726562 188.335938 153.660156 188.402344 C 153.597656 188.464844 153.53125 188.992188 153.398438 189.980469 C 153.332031 190.964844 153.203125 191.691406 153.070312 192.214844 C 152.9375 192.742188 152.871094 193.664062 152.808594 194.980469 C 152.742188 196.296875 152.871094 197.546875 153.070312 198.796875 C 153.332031 199.980469 153.597656 201.03125 153.988281 201.820312 C 154.382812 202.609375 154.582031 203.269531 154.714844 203.664062 C 154.777344 204.058594 154.910156 204.519531 155.238281 205.042969 C 155.503906 205.570312 155.632812 206.03125 155.765625 206.359375 C 155.832031 206.6875 155.960938 207.085938 156.226562 207.480469 C 156.421875 207.875 156.621094 208.332031 156.683594 208.730469 C 156.75 209.1875 156.816406 209.519531 156.949219 209.648438 C 157.078125 209.78125 157.078125 209.980469 157.078125 210.175781 C 157.015625 210.4375 157.078125 210.703125 157.210938 211.097656 C 157.34375 211.492188 157.410156 212.082031 157.410156 213.003906 C 157.410156 213.925781 157.472656 214.453125 157.539062 214.519531 C 157.605469 214.582031 157.605469 214.847656 157.472656 215.242188 C 157.410156 215.636719 157.277344 216.226562 157.277344 217.082031 C 157.210938 217.9375 157.144531 218.53125 156.949219 218.925781 C 156.75 219.320312 156.683594 219.648438 156.683594 219.914062 C 156.683594 220.175781 156.554688 220.765625 156.226562 221.753906 C 155.898438 222.742188 155.699219 223.332031 155.632812 223.53125 C 155.566406 223.726562 155.4375 223.859375 155.371094 223.859375 C 155.304688 223.859375 155.238281 224.058594 155.109375 224.386719 C 155.042969 224.78125 154.910156 224.976562 154.777344 225.109375 C 154.648438 225.242188 154.582031 225.4375 154.515625 225.765625 C 154.449219 226.097656 154.253906 226.425781 153.925781 226.820312 C 153.597656 227.214844 153.398438 227.476562 153.332031 227.742188 C 153.265625 227.9375 153.003906 228.398438 152.414062 229.121094 C 151.820312 229.847656 151.492188 230.304688 151.492188 230.4375 C 151.492188 230.570312 151.230469 230.832031 150.769531 231.160156 C 150.308594 231.492188 149.980469 231.820312 149.847656 232.082031 C 149.652344 232.347656 149.519531 232.542969 149.324219 232.609375 C 149.125 232.675781 148.929688 232.804688 148.730469 233.070312 C 148.535156 233.332031 148.335938 233.398438 148.140625 233.464844 C 147.941406 233.464844 147.8125 233.597656 147.679688 233.726562 C 147.546875 233.925781 147.480469 233.992188 147.351562 233.992188 C 147.21875 233.992188 147.023438 234.121094 146.691406 234.386719 C 146.363281 234.648438 145.445312 235.109375 143.933594 235.699219 C 142.355469 236.359375 141.5 236.621094 141.238281 236.621094 C 140.972656 236.621094 140.777344 236.621094 140.578125 236.6875 C 140.382812 236.753906 139.855469 236.886719 138.9375 236.886719 C 138.015625 236.886719 137.554688 236.949219 137.554688 237.015625 C 137.488281 237.082031 137.160156 237.148438 136.570312 237.148438 C 135.976562 237.148438 135.1875 237.082031 134.332031 236.886719 C 133.414062 236.6875 132.953125 236.621094 132.953125 236.554688 C 132.886719 236.492188 132.820312 236.492188 132.625 236.492188 C 132.425781 236.492188 132.164062 236.492188 131.902344 236.359375 C 131.636719 236.226562 131.308594 236.160156 131.113281 236.160156 C 130.851562 236.160156 130.652344 236.09375 130.519531 235.964844 C 130.324219 235.832031 130.125 235.765625 129.796875 235.699219 C 129.46875 235.699219 129.273438 235.636719 129.207031 235.503906 C 129.140625 235.4375 128.8125 235.242188 128.285156 235.042969 C 127.695312 234.84375 127.367188 234.714844 127.234375 234.515625 C 127.101562 234.386719 126.972656 234.320312 126.707031 234.253906 C 126.511719 234.253906 126.378906 234.121094 126.246094 233.992188 C 126.117188 233.859375 125.984375 233.792969 125.722656 233.726562 C 125.523438 233.726562 125.261719 233.597656 125 233.464844 C 124.734375 233.332031 124.539062 233.136719 124.339844 232.9375 C 124.144531 232.742188 123.945312 232.609375 123.617188 232.476562 C 123.355469 232.410156 123.09375 232.214844 123.027344 231.949219 C 122.960938 231.6875 122.761719 231.554688 122.433594 231.425781 C 122.105469 231.292969 121.976562 231.160156 121.976562 231.160156 C 121.976562 231.097656 121.777344 230.898438 121.316406 230.636719 C 120.855469 230.371094 120.59375 230.042969 120.460938 229.78125 C 120.332031 229.515625 120.199219 229.386719 120.066406 229.320312 C 119.9375 229.320312 119.738281 229.121094 119.476562 228.859375 C 119.214844 228.597656 119.015625 228.332031 118.949219 228.070312 C 118.820312 227.804688 118.6875 227.609375 118.492188 227.410156 C 118.292969 227.214844 118.160156 227.082031 118.097656 226.886719 C 118.03125 226.6875 117.964844 226.558594 117.832031 226.558594 C 117.703125 226.492188 117.636719 226.359375 117.503906 226.03125 C 117.371094 225.703125 117.242188 225.570312 117.175781 225.503906 C 117.042969 225.4375 116.914062 225.242188 116.714844 224.78125 C 116.519531 224.320312 116.320312 223.925781 116.058594 223.660156 C 115.859375 223.332031 115.730469 223.070312 115.664062 222.871094 C 115.664062 222.675781 115.53125 222.476562 115.402344 222.347656 C 115.269531 222.28125 115.203125 222.015625 115.136719 221.6875 C 115.136719 221.359375 115.007812 221.03125 114.875 220.898438 C 114.742188 220.765625 114.546875 220.371094 114.480469 219.914062 C 114.347656 219.386719 114.21875 219.058594 114.085938 218.859375 C 113.953125 218.664062 113.824219 218.269531 113.757812 217.675781 C 113.691406 217.082031 113.558594 216.6875 113.429688 216.425781 C 113.230469 216.164062 113.164062 215.832031 113.164062 215.503906 C 113.164062 215.175781 113.101562 214.847656 113.035156 214.582031 C 112.902344 214.386719 112.902344 214.058594 112.902344 213.792969 C 112.902344 213.53125 112.902344 213.332031 112.835938 213.269531 C 112.769531 213.203125 112.769531 213.070312 112.769531 212.875 C 112.835938 212.675781 112.769531 212.414062 112.640625 212.214844 C 112.574219 211.953125 112.507812 210.703125 112.507812 208.398438 C 112.507812 206.097656 112.574219 204.847656 112.640625 204.585938 C 112.769531 204.320312 112.835938 203.925781 112.835938 203.335938 C 112.902344 202.675781 112.96875 202.214844 113.101562 201.886719 C 113.230469 201.558594 113.429688 200.769531 113.625 199.648438 C 113.886719 198.464844 114.019531 197.742188 114.152344 197.480469 C 114.28125 197.214844 114.347656 197.085938 114.414062 197.085938 C 114.480469 197.085938 114.613281 196.359375 114.808594 195.046875 C 115.007812 193.664062 115.007812 192.414062 114.875 191.230469 C 114.742188 190.046875 114.613281 189.453125 114.546875 189.386719 C 114.414062 189.257812 114.347656 189.058594 114.347656 188.664062 C 114.347656 188.269531 114.152344 187.742188 113.824219 187.085938 C 113.496094 186.363281 113.296875 185.835938 113.164062 185.375 C 113.101562 184.914062 112.96875 184.652344 112.902344 184.585938 C 112.769531 184.519531 112.640625 183.863281 112.3125 182.546875 C 112.046875 181.230469 111.917969 180.308594 112.046875 179.78125 C 112.179688 179.257812 112.179688 178.730469 112.179688 178.136719 C 112.113281 177.613281 112.179688 177.28125 112.246094 177.28125 C 112.3125 177.21875 112.507812 176.429688 112.835938 174.785156 C 113.164062 173.136719 113.363281 172.285156 113.429688 172.285156 C 113.429688 172.285156 113.496094 172.285156 113.496094 172.285156 C 113.496094 172.085938 113.496094 171.953125 113.496094 171.757812 C 113.496094 171.429688 113.558594 171.164062 113.625 171.035156 C 113.691406 170.835938 113.757812 170.703125 113.691406 170.441406 C 113.691406 170.179688 113.691406 170.046875 113.757812 169.980469 C 113.824219 169.914062 113.824219 169.785156 113.824219 169.519531 C 113.824219 169.324219 113.824219 169.125 113.886719 168.992188 C 113.953125 168.929688 113.953125 168.402344 113.953125 167.414062 C 113.953125 166.429688 113.953125 165.96875 113.886719 165.902344 C 113.824219 165.835938 113.757812 165.375 113.691406 164.453125 C 113.625 163.535156 113.558594 162.941406 113.429688 162.746094 C 113.296875 162.546875 113.296875 162.21875 113.296875 161.890625 C 113.363281 161.558594 113.296875 161.296875 113.164062 161.164062 C 113.101562 161.035156 112.96875 160.441406 112.96875 159.457031 C 112.902344 158.402344 112.96875 157.875 113.035156 157.746094 C 113.101562 157.679688 113.164062 157.152344 113.230469 156.230469 C 113.296875 155.375 113.429688 154.785156 113.558594 154.519531 C 113.757812 154.324219 113.824219 153.996094 113.824219 153.730469 C 113.824219 153.46875 113.953125 153.207031 114.085938 153.074219 C 114.21875 152.941406 114.347656 152.613281 114.613281 152.019531 C 114.808594 151.496094 115.007812 151.101562 115.203125 150.902344 C 115.402344 150.707031 115.464844 150.507812 115.464844 150.375 C 115.464844 150.3125 115.464844 150.179688 115.464844 150.113281 C 115.53125 150.113281 115.597656 150.113281 115.597656 150.113281 C 115.730469 150.113281 115.859375 149.851562 116.125 149.390625 C 116.386719 148.929688 116.585938 148.667969 116.714844 148.601562 C 116.847656 148.535156 116.976562 148.273438 117.175781 147.875 C 117.371094 147.480469 117.570312 147.152344 117.898438 146.824219 C 118.226562 146.496094 118.425781 146.296875 118.425781 146.167969 C 118.425781 146.035156 118.554688 145.835938 118.820312 145.507812 C 119.082031 145.246094 119.28125 144.917969 119.34375 144.652344 C 119.410156 144.390625 119.542969 144.128906 119.671875 143.929688 C 119.804688 143.730469 120.003906 143.140625 120.199219 142.085938 C 120.398438 141.035156 120.398438 140.3125 120.398438 139.984375 C 120.332031 139.652344 120.398438 139.457031 120.460938 139.324219 C 120.527344 139.191406 120.460938 138.734375 120.265625 137.878906 C 120.066406 137.023438 119.9375 136.429688 119.9375 136.167969 C 119.9375 135.902344 119.804688 135.441406 119.609375 134.917969 C 119.410156 134.324219 119.148438 133.996094 118.949219 133.796875 C 118.753906 133.601562 118.621094 133.402344 118.492188 133.140625 C 118.359375 132.878906 118.226562 132.679688 118.03125 132.546875 C 117.832031 132.417969 117.703125 132.285156 117.703125 132.089844 C 117.703125 131.957031 117.636719 131.824219 117.570312 131.824219 C 117.503906 131.824219 117.4375 131.695312 117.308594 131.496094 C 117.175781 131.296875 116.976562 131.101562 116.648438 130.839844 C 116.320312 130.574219 116.125 130.378906 115.992188 130.246094 C 115.859375 130.050781 115.796875 129.984375 115.664062 129.984375 C 115.53125 129.917969 115.402344 129.785156 115.203125 129.589844 C 115.007812 129.390625 114.808594 129.195312 114.546875 129.0625 C 114.28125 128.929688 114.019531 128.800781 113.824219 128.535156 C 113.625 128.273438 113.296875 128.140625 113.035156 128.007812 C 112.707031 127.945312 112.441406 127.8125 112.246094 127.484375 C 112.046875 127.21875 111.785156 127.089844 111.652344 127.023438 C 111.457031 126.957031 111.257812 126.824219 110.996094 126.5625 C 110.667969 126.300781 110.40625 126.101562 110.140625 126.035156 C 109.8125 125.96875 109.617188 125.839844 109.484375 125.574219 C 109.351562 125.3125 109.15625 125.179688 108.957031 125.179688 C 108.761719 125.179688 108.496094 124.984375 108.234375 124.71875 C 108.039062 124.457031 107.644531 124.195312 107.117188 123.863281 C 106.589844 123.535156 106.261719 123.273438 106.195312 123.074219 C 106.066406 122.878906 105.867188 122.613281 105.472656 122.285156 C 105.078125 121.957031 104.75 121.5625 104.554688 121.167969 C 104.355469 120.707031 104.09375 120.378906 103.832031 120.179688 C 103.566406 119.917969 103.371094 119.71875 103.304688 119.457031 C 103.171875 119.195312 103.105469 119.0625 103.042969 119.0625 C 102.976562 119.0625 102.84375 118.867188 102.582031 118.46875 C 102.382812 118.074219 102.1875 117.746094 102.121094 117.417969 C 102.054688 117.15625 101.925781 116.761719 101.59375 116.300781 C 101.332031 115.839844 101.199219 115.574219 101.070312 115.574219 C 101.003906 115.574219 100.9375 115.445312 100.9375 115.117188 C 100.9375 114.785156 100.804688 114.589844 100.675781 114.457031 C 100.542969 114.324219 100.476562 114.0625 100.410156 113.734375 C 100.410156 113.40625 100.28125 113.140625 100.148438 112.878906 C 100.015625 112.617188 99.820312 112.285156 99.621094 111.695312 C 99.425781 111.101562 99.230469 110.578125 99.097656 109.984375 C 98.964844 109.390625 98.835938 108.996094 98.835938 108.734375 C 98.835938 108.40625 98.769531 108.078125 98.570312 107.746094 C 98.375 107.351562 98.375 107.089844 98.375 106.828125 C 98.441406 106.628906 98.375 106.367188 98.242188 106.167969 C 98.109375 105.972656 98.046875 105.707031 98.109375 105.511719 C 98.175781 105.246094 98.109375 104.984375 97.980469 104.789062 C 97.847656 104.589844 97.847656 104.390625 97.847656 104.128906 C 97.914062 103.933594 97.847656 103.667969 97.714844 103.40625 C 97.585938 103.140625 97.519531 102.746094 97.585938 102.289062 C 97.652344 101.828125 97.585938 101.5625 97.519531 101.433594 C 97.453125 101.300781 97.453125 101.167969 97.453125 100.90625 C 97.519531 100.707031 97.453125 100.578125 97.386719 100.511719 C 97.320312 100.445312 97.320312 100.3125 97.386719 99.984375 C 97.453125 99.65625 97.453125 99.0625 97.453125 98.207031 C 97.453125 97.351562 97.519531 96.367188 97.714844 95.117188 C 97.914062 93.933594 98.175781 92.878906 98.570312 91.957031 C 98.964844 91.039062 99.164062 90.3125 99.292969 89.722656 C 99.359375 89.128906 99.492188 88.800781 99.6875 88.605469 C 99.886719 88.40625 99.953125 88.273438 99.953125 88.078125 C 99.953125 87.878906 100.082031 87.484375 100.347656 86.828125 C 100.609375 86.167969 100.804688 85.773438 100.9375 85.644531 C 101.070312 85.511719 101.332031 84.917969 101.792969 83.933594 C 102.1875 82.945312 102.648438 82.089844 103.042969 81.566406 C 103.4375 81.039062 103.632812 80.644531 103.632812 80.511719 C 103.632812 80.378906 103.699219 80.183594 103.894531 80.050781 C 104.09375 79.921875 104.226562 79.722656 104.289062 79.394531 C 104.355469 79.066406 104.488281 78.867188 104.683594 78.800781 C 104.882812 78.671875 104.949219 78.539062 104.949219 78.339844 C 105.015625 78.144531 105.144531 77.945312 105.34375 77.816406 C 105.605469 77.617188 105.738281 77.484375 105.738281 77.289062 C 105.738281 77.089844 105.867188 76.960938 106 76.894531 C 106.195312 76.828125 106.261719 76.628906 106.394531 76.367188 C 106.527344 76.105469 106.789062 75.777344 107.183594 75.382812 C 107.578125 74.984375 107.839844 74.722656 107.839844 74.589844 C 107.90625 74.460938 108.367188 73.933594 109.222656 73.078125 C 110.140625 72.15625 110.601562 71.761719 110.734375 71.695312 C 110.863281 71.695312 110.929688 71.632812 110.996094 71.5 C 110.996094 71.433594 111.257812 71.171875 111.71875 70.839844 C 112.179688 70.511719 112.507812 70.25 112.574219 69.988281 C 112.707031 69.789062 112.902344 69.589844 113.101562 69.460938 C 113.363281 69.328125 113.496094 69.195312 113.496094 69.066406 C 113.496094 68.933594 113.691406 68.800781 114.019531 68.671875 C 114.28125 68.539062 114.546875 68.34375 114.675781 68.078125 C 114.808594 67.816406 115.203125 67.488281 115.730469 67.15625 C 116.253906 66.828125 116.585938 66.566406 116.585938 66.5 C 116.648438 66.367188 116.78125 66.238281 117.042969 66.171875 C 117.308594 66.105469 117.4375 65.972656 117.570312 65.777344 C 117.703125 65.578125 118.03125 65.316406 118.621094 65.050781 C 119.148438 64.789062 119.542969 64.527344 119.738281 64.328125 C 119.9375 64.132812 120.066406 64 120.265625 64 C 120.460938 64 120.660156 63.800781 120.921875 63.605469 C 121.121094 63.40625 121.316406 63.277344 121.382812 63.34375 C 121.449219 63.34375 121.582031 63.34375 121.910156 63.210938 C 122.238281 63.078125 122.433594 62.882812 122.632812 62.683594 C 122.828125 62.488281 123.222656 62.289062 123.75 62.027344 C 124.277344 61.761719 124.671875 61.632812 124.867188 61.433594 C 125.066406 61.238281 125.328125 61.171875 125.65625 61.105469 C 125.984375 61.039062 126.511719 60.777344 127.300781 60.382812 C 128.089844 59.988281 128.546875 59.722656 128.8125 59.65625 C 129.074219 59.65625 129.273438 59.527344 129.46875 59.394531 C 129.667969 59.261719 130.390625 58.933594 131.703125 58.539062 C 133.085938 58.144531 133.808594 57.882812 133.9375 57.816406 C 134.070312 57.75 134.664062 57.554688 135.78125 57.289062 C 136.832031 57.09375 137.421875 56.894531 137.488281 56.828125 C 137.488281 56.761719 138.542969 56.632812 140.511719 56.367188 C 142.550781 56.105469 143.867188 56.039062 144.523438 56.039062 C 145.179688 56.105469 145.574219 56.039062 145.640625 55.972656 C 146.101562 56.304688 147.152344 56.304688 149.058594 56.367188 Z M 145.246094 65.644531 C 145.050781 65.710938 144.328125 65.777344 142.945312 65.777344 C 141.632812 65.777344 140.777344 65.84375 140.511719 65.972656 C 140.25 66.105469 139.527344 66.238281 138.34375 66.300781 C 137.160156 66.367188 136.242188 66.5 135.515625 66.828125 C 134.859375 67.09375 134.332031 67.222656 133.9375 67.289062 C 133.546875 67.355469 133.347656 67.355469 133.214844 67.488281 C 133.085938 67.617188 132.886719 67.617188 132.691406 67.617188 C 132.425781 67.550781 132.230469 67.617188 132.03125 67.75 C 131.835938 67.882812 131.636719 67.945312 131.507812 67.882812 C 131.375 67.882812 131.308594 67.882812 131.242188 67.945312 C 131.179688 68.078125 130.914062 68.144531 130.390625 68.277344 C 129.796875 68.34375 129.273438 68.605469 128.679688 68.933594 C 128.089844 69.261719 127.695312 69.460938 127.429688 69.460938 C 127.101562 69.460938 126.90625 69.589844 126.707031 69.789062 C 126.511719 69.988281 126.246094 70.117188 125.917969 70.183594 C 125.589844 70.316406 125.394531 70.382812 125.328125 70.511719 C 125.328125 70.644531 125.128906 70.710938 124.933594 70.777344 C 124.734375 70.839844 124.472656 70.972656 124.339844 71.171875 C 124.144531 71.367188 124.011719 71.433594 123.816406 71.433594 C 123.617188 71.433594 123.289062 71.566406 122.960938 71.828125 C 122.566406 72.089844 122.304688 72.289062 122.238281 72.421875 C 122.171875 72.550781 122.039062 72.683594 121.777344 72.75 C 121.515625 72.816406 121.25 73.011719 120.921875 73.277344 C 120.59375 73.539062 120.398438 73.734375 120.265625 73.734375 C 120.132812 73.734375 120.003906 73.867188 119.871094 74.066406 C 119.671875 74.261719 119.542969 74.460938 119.34375 74.527344 C 119.148438 74.589844 118.949219 74.722656 118.753906 75.050781 C 118.554688 75.316406 118.359375 75.511719 118.097656 75.644531 C 117.898438 75.777344 117.570312 76.105469 117.242188 76.632812 C 116.847656 77.15625 116.648438 77.421875 116.519531 77.484375 C 116.386719 77.484375 116.191406 77.683594 115.925781 77.878906 C 115.664062 78.078125 115.53125 78.277344 115.464844 78.472656 C 115.464844 78.671875 115.269531 78.800781 115.007812 79 C 114.742188 79.195312 114.613281 79.328125 114.546875 79.527344 C 114.546875 79.722656 114.347656 79.855469 114.085938 80.050781 C 113.824219 80.25 113.496094 80.710938 113.164062 81.367188 C 112.835938 82.023438 112.441406 82.484375 112.113281 82.816406 C 111.785156 83.144531 111.585938 83.40625 111.523438 83.671875 C 111.457031 84 111.324219 84.195312 111.128906 84.328125 C 110.929688 84.460938 110.863281 84.523438 110.863281 84.65625 C 110.863281 84.722656 110.800781 84.855469 110.667969 84.984375 C 110.535156 85.117188 110.40625 85.378906 110.40625 85.644531 C 110.339844 85.90625 110.273438 86.039062 110.140625 86.167969 C 110.011719 86.234375 109.945312 86.367188 109.878906 86.566406 C 109.8125 86.761719 109.8125 86.894531 109.746094 86.894531 C 109.746094 86.894531 109.679688 86.894531 109.679688 86.894531 C 109.679688 86.960938 109.679688 87.023438 109.679688 87.089844 C 109.679688 87.222656 109.484375 87.550781 109.15625 88.078125 C 108.828125 88.605469 108.496094 89.328125 108.101562 90.25 C 107.773438 91.167969 107.578125 91.761719 107.578125 92.023438 C 107.578125 92.289062 107.445312 92.550781 107.25 92.8125 C 107.050781 93.078125 106.984375 93.40625 106.984375 93.734375 C 106.984375 94.0625 107.117188 93.933594 107.050781 93.933594 C 106.984375 93.933594 106.921875 94.128906 106.921875 94.457031 C 106.921875 94.789062 106.789062 94.984375 106.722656 95.117188 C 106.65625 95.25 106.527344 95.644531 106.460938 96.433594 C 106.394531 97.222656 106.328125 97.683594 106.261719 97.75 C 106.195312 97.8125 106.195312 98.011719 106.195312 98.273438 C 106.261719 98.539062 106.195312 98.800781 106.132812 98.996094 C 106 99.261719 106 99.523438 106.066406 99.917969 C 106.132812 100.3125 106.132812 100.511719 106.066406 100.644531 C 106 100.707031 106 100.839844 106.066406 101.101562 C 106.132812 101.367188 106.195312 101.761719 106.195312 102.417969 C 106.195312 103.011719 106.132812 103.40625 106.066406 103.472656 C 106 103.601562 106 103.800781 106.132812 104.195312 C 106.195312 104.589844 106.261719 104.789062 106.195312 104.917969 C 106.066406 104.984375 106.066406 105.117188 106.195312 105.3125 C 106.328125 105.511719 106.394531 106.035156 106.527344 106.828125 C 106.65625 107.617188 106.722656 108.011719 106.855469 108.011719 C 106.855469 108.011719 106.921875 108.011719 106.921875 108.011719 C 106.921875 108.140625 106.921875 108.273438 106.921875 108.40625 C 106.921875 108.667969 107.050781 109.195312 107.378906 109.917969 C 107.710938 110.640625 107.839844 111.035156 107.773438 111.167969 C 107.773438 111.300781 107.839844 111.496094 108.101562 111.828125 C 108.300781 112.15625 108.496094 112.617188 108.695312 113.140625 C 108.890625 113.667969 109.023438 114.0625 109.222656 114.261719 C 109.417969 114.457031 109.550781 114.722656 109.746094 115.117188 C 109.878906 115.511719 110.207031 115.90625 110.734375 116.429688 C 111.257812 116.957031 111.585938 117.351562 111.71875 117.679688 C 111.851562 118.011719 111.980469 118.207031 112.246094 118.339844 C 112.441406 118.46875 112.574219 118.601562 112.640625 118.734375 C 112.707031 118.867188 112.902344 119.0625 113.230469 119.261719 C 113.558594 119.457031 114.019531 119.851562 114.480469 120.378906 C 115.007812 120.90625 115.402344 121.234375 115.730469 121.363281 C 116.058594 121.496094 116.253906 121.628906 116.453125 121.890625 C 116.648438 122.15625 116.847656 122.285156 117.175781 122.417969 C 117.503906 122.550781 117.703125 122.613281 117.832031 122.8125 C 117.964844 123.011719 118.097656 123.074219 118.292969 123.074219 C 118.492188 123.074219 118.6875 123.207031 119.015625 123.46875 C 119.28125 123.734375 119.542969 123.863281 119.609375 123.800781 C 119.738281 123.800781 119.9375 123.863281 120.265625 124.128906 C 120.59375 124.390625 120.855469 124.457031 121.121094 124.523438 C 121.382812 124.589844 121.582031 124.65625 121.644531 124.71875 C 121.710938 124.785156 121.910156 124.917969 122.238281 124.984375 C 122.566406 125.050781 122.761719 125.113281 122.828125 125.246094 C 122.894531 125.3125 123.222656 125.445312 123.882812 125.507812 C 124.472656 125.640625 124.800781 125.707031 124.800781 125.773438 C 124.800781 125.839844 125.066406 125.90625 125.523438 125.96875 C 125.984375 126.035156 126.246094 126.101562 126.246094 126.167969 C 126.246094 126.234375 126.511719 126.300781 126.972656 126.300781 C 127.367188 126.363281 127.695312 126.429688 127.761719 126.496094 C 127.824219 126.5625 128.152344 126.628906 128.613281 126.628906 C 129.074219 126.628906 129.335938 126.695312 129.402344 126.757812 C 129.46875 126.890625 129.667969 126.890625 129.929688 126.890625 C 130.191406 126.890625 130.390625 126.890625 130.457031 126.957031 C 130.519531 127.023438 130.785156 127.089844 131.375 127.089844 C 131.96875 127.089844 132.558594 127.15625 133.214844 127.285156 C 133.808594 127.417969 134.53125 127.484375 135.253906 127.417969 C 136.042969 127.351562 136.636719 127.417969 137.160156 127.484375 C 137.6875 127.550781 137.949219 127.550781 138.015625 127.484375 C 138.015625 127.417969 138.210938 127.351562 138.410156 127.351562 C 138.671875 127.351562 139 127.351562 139.460938 127.351562 C 139.921875 127.417969 140.183594 127.351562 140.183594 127.285156 C 140.25 127.21875 140.710938 127.15625 141.695312 127.023438 C 142.683594 126.890625 143.207031 126.757812 143.40625 126.5625 C 143.601562 126.363281 143.800781 126.300781 144.0625 126.300781 C 144.328125 126.363281 144.457031 126.300781 144.523438 126.167969 C 144.523438 126.101562 144.523438 126.101562 144.589844 126.035156 C 144.65625 126.035156 144.65625 126.101562 144.722656 126.101562 C 144.785156 126.101562 144.851562 126.101562 144.851562 126.167969 C 144.851562 126.101562 144.851562 126.101562 144.851562 126.035156 C 144.851562 125.96875 144.917969 125.90625 145.117188 125.90625 C 145.3125 125.90625 145.902344 125.640625 146.824219 125.113281 C 147.746094 124.589844 148.664062 123.929688 149.519531 123.074219 C 150.441406 122.21875 150.835938 121.761719 150.835938 121.5625 C 150.835938 121.429688 150.964844 121.300781 151.164062 121.101562 C 151.359375 120.90625 151.558594 120.707031 151.558594 120.511719 C 151.625 120.3125 151.753906 120.050781 151.953125 119.785156 C 152.148438 119.523438 152.347656 119.324219 152.347656 119.128906 C 152.347656 118.867188 152.476562 118.667969 152.609375 118.40625 C 152.808594 118.140625 152.808594 117.945312 152.808594 117.878906 C 152.742188 117.746094 152.808594 117.679688 152.871094 117.679688 C 152.9375 117.617188 153.003906 117.417969 153.003906 117.023438 C 153.070312 116.628906 153.136719 116.300781 153.265625 115.972656 C 153.398438 115.640625 153.53125 114.851562 153.597656 113.601562 C 153.660156 112.351562 153.660156 111.628906 153.53125 111.367188 C 153.464844 111.167969 153.332031 110.578125 153.265625 109.722656 C 153.203125 108.867188 153.070312 108.273438 152.9375 108.078125 C 152.808594 107.878906 152.742188 107.683594 152.742188 107.417969 C 152.742188 107.222656 152.675781 106.890625 152.476562 106.5625 C 152.28125 106.234375 152.148438 105.972656 152.148438 105.707031 C 152.148438 105.511719 152.019531 105.3125 151.886719 105.183594 C 151.753906 105.050781 151.625 104.851562 151.558594 104.589844 C 151.492188 104.328125 151.425781 104.128906 151.292969 104.0625 C 151.164062 103.996094 151.097656 103.933594 151.097656 103.800781 C 151.097656 103.667969 150.902344 103.339844 150.570312 103.011719 C 150.308594 102.683594 149.914062 102.351562 149.519531 102.023438 C 149.058594 101.761719 148.796875 101.496094 148.730469 101.234375 C 148.664062 101.039062 148.535156 100.90625 148.402344 100.90625 C 148.269531 100.90625 148.207031 100.839844 148.140625 100.773438 C 148.074219 100.707031 148.007812 100.644531 147.875 100.644531 C 147.746094 100.644531 147.613281 100.578125 147.417969 100.378906 C 147.21875 100.183594 146.957031 100.050781 146.496094 99.984375 C 146.035156 99.917969 145.773438 99.789062 145.707031 99.722656 C 145.640625 99.589844 145.246094 99.523438 144.457031 99.394531 C 143.734375 99.261719 143.078125 99.195312 142.550781 99.195312 C 142.027344 99.195312 141.5 99.261719 141.039062 99.457031 C 140.578125 99.65625 139.988281 99.722656 139.332031 99.722656 C 138.671875 99.722656 137.949219 99.917969 137.226562 100.117188 C 136.4375 100.3125 136.042969 100.445312 135.910156 100.378906 C 135.78125 100.3125 135.1875 100.246094 134.203125 100.246094 C 133.214844 100.246094 132.492188 100.183594 131.96875 99.984375 C 131.441406 99.789062 131.179688 99.722656 131.113281 99.589844 C 131.046875 99.457031 130.914062 99.457031 130.652344 99.457031 C 130.457031 99.457031 130.257812 99.328125 130.125 99 C 130.0625 98.734375 129.929688 98.539062 129.863281 98.539062 C 129.796875 98.539062 129.730469 98.40625 129.601562 98.207031 C 129.535156 98.011719 129.402344 97.75 129.402344 97.351562 C 129.402344 96.957031 129.335938 96.761719 129.273438 96.761719 C 129.207031 96.695312 129.140625 96.5 129.140625 96.039062 C 129.140625 95.578125 129.207031 95.25 129.273438 95.183594 C 129.335938 95.050781 129.46875 94.722656 129.535156 94.128906 C 129.601562 93.539062 129.796875 92.945312 130.257812 92.355469 C 130.652344 91.695312 130.980469 91.300781 131.242188 91.105469 C 131.507812 90.90625 131.636719 90.710938 131.703125 90.578125 C 131.703125 90.445312 131.835938 90.3125 132.03125 90.25 C 132.230469 90.183594 132.425781 89.984375 132.757812 89.65625 C 133.019531 89.394531 133.28125 89.195312 133.546875 89.128906 C 133.808594 89.0625 133.941406 89 133.941406 88.933594 C 133.941406 88.867188 134.070312 88.800781 134.269531 88.734375 C 134.53125 88.667969 134.664062 88.539062 134.859375 88.40625 C 135.058594 88.273438 135.648438 88.011719 136.699219 87.816406 C 137.753906 87.617188 138.9375 87.484375 140.183594 87.484375 C 141.433594 87.484375 142.222656 87.617188 142.484375 87.75 C 142.75 87.878906 142.945312 87.945312 143.144531 87.878906 C 143.339844 87.816406 143.734375 87.945312 144.328125 88.273438 C 144.917969 88.605469 145.378906 88.734375 145.574219 88.734375 C 145.773438 88.734375 145.902344 88.800781 145.902344 88.867188 C 145.96875 88.933594 146.167969 89.0625 146.496094 89.195312 C 146.824219 89.328125 147.023438 89.460938 147.023438 89.523438 C 147.023438 89.523438 147.023438 89.589844 147.023438 89.65625 C 147.152344 89.65625 147.21875 89.65625 147.351562 89.65625 C 147.613281 89.65625 147.875 89.855469 148.140625 90.183594 C 148.46875 90.511719 148.730469 90.710938 149.058594 90.839844 C 149.324219 90.972656 149.78125 91.234375 150.308594 91.695312 C 150.835938 92.15625 151.097656 92.355469 151.03125 92.417969 C 151.03125 92.484375 150.964844 92.484375 150.964844 92.550781 C 151.03125 92.550781 151.03125 92.550781 151.03125 92.550781 C 151.097656 92.550781 151.164062 92.617188 151.164062 92.75 C 151.230469 92.878906 151.359375 93.078125 151.625 93.339844 C 151.886719 93.605469 152.082031 93.734375 152.214844 93.800781 C 152.347656 93.867188 152.542969 94.0625 152.808594 94.523438 C 153.070312 94.984375 153.265625 95.25 153.332031 95.25 C 153.398438 95.3125 153.53125 95.378906 153.597656 95.511719 C 153.660156 95.707031 153.859375 95.90625 154.1875 96.234375 C 154.515625 96.5625 154.777344 96.957031 154.910156 97.351562 C 155.109375 97.75 155.304688 98.207031 155.566406 98.601562 C 155.832031 98.996094 155.960938 99.261719 156.027344 99.457031 C 156.09375 99.65625 156.160156 99.851562 156.355469 99.984375 C 156.554688 100.117188 156.621094 100.3125 156.621094 100.511719 C 156.621094 100.707031 156.6875 100.839844 156.816406 100.972656 C 156.949219 101.101562 157.078125 101.433594 157.210938 101.957031 C 157.34375 102.484375 157.472656 102.878906 157.605469 103.078125 C 157.738281 103.273438 157.804688 103.40625 157.738281 103.601562 C 157.671875 103.800781 157.738281 103.933594 157.867188 103.933594 C 157.933594 103.996094 158.066406 104.195312 158.066406 104.65625 C 158.132812 105.117188 158.199219 105.3125 158.261719 105.445312 C 158.394531 105.578125 158.527344 106.367188 158.855469 107.945312 C 159.117188 109.523438 159.25 110.511719 159.25 110.972656 C 159.25 111.429688 159.25 111.695312 159.316406 111.828125 C 159.382812 111.957031 159.382812 112.15625 159.316406 112.484375 C 159.25 112.746094 159.25 113.011719 159.316406 113.078125 C 159.382812 113.207031 159.445312 113.472656 159.445312 113.929688 C 159.445312 114.390625 159.382812 114.722656 159.316406 114.917969 C 159.25 115.117188 159.25 115.3125 159.316406 115.445312 C 159.382812 115.640625 159.382812 115.707031 159.316406 115.707031 C 159.25 115.773438 159.183594 115.972656 159.117188 116.367188 C 159.050781 116.761719 159.050781 117.023438 159.117188 117.222656 C 159.183594 117.417969 159.183594 117.679688 159.117188 118.074219 C 159.050781 118.40625 158.988281 118.601562 158.921875 118.667969 C 158.855469 118.734375 158.789062 119.0625 158.722656 119.65625 C 158.65625 120.3125 158.527344 120.707031 158.394531 120.96875 C 158.261719 121.234375 158.066406 121.695312 158 122.351562 C 157.933594 123.011719 157.738281 123.601562 157.410156 124.128906 C 157.078125 124.65625 156.949219 125.050781 156.949219 125.246094 C 156.949219 125.445312 156.816406 125.707031 156.621094 125.96875 C 156.421875 126.234375 156.226562 126.5625 156.09375 127.023438 C 156.027344 127.484375 155.832031 127.746094 155.632812 127.945312 C 155.4375 128.140625 155.238281 128.40625 155.109375 128.734375 C 154.976562 129.0625 154.84375 129.324219 154.84375 129.523438 C 154.84375 129.71875 154.714844 129.917969 154.515625 130.179688 C 154.320312 130.445312 154.121094 130.574219 154.121094 130.707031 C 154.121094 130.839844 154.054688 130.902344 153.925781 130.902344 C 153.792969 130.902344 153.726562 131.035156 153.660156 131.300781 C 153.597656 131.5625 153.398438 131.824219 153.136719 132.152344 C 152.871094 132.417969 152.742188 132.679688 152.742188 132.746094 C 152.808594 132.878906 152.675781 132.945312 152.542969 133.074219 C 152.347656 133.140625 152.214844 133.402344 152.019531 133.796875 C 151.820312 134.195312 151.625 134.457031 151.425781 134.589844 C 151.230469 134.71875 151.03125 134.917969 150.902344 135.179688 C 150.703125 135.445312 150.570312 135.640625 150.375 135.707031 C 150.175781 135.773438 149.980469 135.96875 149.78125 136.429688 C 149.519531 136.824219 149.324219 137.023438 149.191406 137.089844 C 148.992188 137.089844 148.863281 137.285156 148.664062 137.613281 C 148.46875 137.941406 148.269531 138.140625 147.941406 138.339844 C 147.679688 138.46875 147.417969 138.667969 147.285156 138.996094 C 147.085938 139.257812 146.890625 139.457031 146.691406 139.523438 C 146.496094 139.589844 146.363281 139.71875 146.363281 139.851562 C 146.296875 139.984375 146.101562 140.113281 145.640625 140.378906 C 145.246094 140.574219 144.917969 140.773438 144.722656 141.035156 C 144.523438 141.296875 144.390625 141.429688 144.261719 141.429688 C 144.195312 141.429688 143.996094 141.5625 143.667969 141.890625 C 143.339844 142.21875 143.144531 142.351562 142.945312 142.417969 C 142.75 142.484375 142.421875 142.679688 142.027344 143.074219 C 141.632812 143.46875 141.300781 143.730469 140.972656 143.796875 C 140.710938 143.863281 140.511719 143.996094 140.449219 144.0625 C 140.382812 144.191406 139.921875 144.523438 139.066406 144.980469 C 138.148438 145.441406 137.621094 145.835938 137.359375 146.035156 C 137.09375 146.296875 136.898438 146.496094 136.636719 146.5625 C 136.371094 146.628906 136.175781 146.757812 136.109375 146.890625 C 136.042969 147.023438 135.714844 147.21875 135.1875 147.417969 C 134.664062 147.613281 134.269531 147.941406 133.941406 148.207031 C 133.609375 148.46875 133.28125 148.730469 133.019531 148.796875 C 132.757812 148.929688 132.558594 148.996094 132.492188 149.125 C 132.425781 149.257812 132.230469 149.390625 131.902344 149.523438 C 131.574219 149.652344 131.375 149.785156 131.375 149.851562 C 131.375 149.917969 131.179688 150.046875 130.71875 150.3125 C 130.324219 150.574219 129.996094 150.769531 129.796875 151.035156 C 129.601562 151.296875 129.402344 151.429688 129.207031 151.496094 C 129.007812 151.5625 128.746094 151.757812 128.484375 152.085938 C 128.21875 152.417969 127.957031 152.613281 127.761719 152.679688 C 127.5625 152.746094 127.367188 152.941406 127.101562 153.335938 C 126.90625 153.730469 126.707031 153.863281 126.578125 153.863281 C 126.445312 153.863281 126.3125 153.929688 126.117188 154.125 C 125.917969 154.324219 125.789062 154.519531 125.722656 154.71875 C 125.65625 154.914062 125.328125 155.375 124.671875 156.035156 C 124.011719 156.691406 123.550781 157.414062 123.222656 158.140625 C 122.960938 158.863281 122.632812 159.324219 122.371094 159.585938 C 122.105469 159.851562 121.976562 160.046875 121.976562 160.246094 C 121.976562 160.441406 121.910156 160.640625 121.710938 160.769531 C 121.515625 160.902344 121.449219 161.101562 121.449219 161.296875 C 121.449219 161.496094 121.382812 161.691406 121.25 161.824219 C 121.121094 161.953125 121.054688 162.085938 121.054688 162.21875 C 121.054688 162.285156 121.054688 162.351562 121.054688 162.414062 C 120.988281 162.414062 120.988281 162.414062 120.921875 162.414062 C 120.855469 162.414062 120.855469 162.414062 120.792969 162.414062 C 120.792969 162.546875 120.792969 162.679688 120.792969 162.746094 C 120.792969 162.941406 120.660156 163.269531 120.527344 163.601562 C 120.332031 163.996094 120.265625 164.257812 120.265625 164.453125 C 120.265625 164.652344 120.265625 164.851562 120.132812 165.113281 C 120.003906 165.375 119.9375 165.640625 119.9375 165.902344 C 119.9375 166.035156 119.9375 166.164062 119.9375 166.363281 C 119.871094 166.363281 119.871094 166.363281 119.804688 166.363281 C 119.738281 166.363281 119.609375 166.625 119.542969 167.085938 C 119.410156 167.613281 119.34375 168.269531 119.34375 169.191406 C 119.34375 170.046875 119.28125 170.902344 119.214844 171.625 C 119.082031 172.347656 119.082031 172.941406 119.214844 173.335938 C 119.34375 173.730469 119.34375 174.191406 119.34375 174.519531 C 119.28125 174.914062 119.34375 175.179688 119.476562 175.375 C 119.609375 175.574219 119.671875 175.96875 119.738281 176.558594 C 119.804688 177.152344 119.871094 177.480469 120.003906 177.613281 C 120.132812 177.679688 120.132812 177.941406 120.132812 178.269531 C 120.132812 178.597656 120.332031 179.191406 120.660156 179.980469 C 120.988281 180.769531 121.25 181.230469 121.449219 181.492188 C 121.644531 181.757812 121.777344 181.886719 121.777344 182.085938 C 121.777344 182.28125 121.910156 182.347656 121.976562 182.347656 C 122.105469 182.347656 122.171875 182.414062 122.238281 182.480469 C 122.304688 182.613281 122.371094 182.742188 122.371094 182.941406 C 122.371094 183.136719 122.5 183.269531 122.632812 183.402344 C 122.761719 183.53125 122.894531 183.597656 122.894531 183.730469 C 122.894531 183.863281 123.027344 183.992188 123.289062 184.191406 C 123.550781 184.386719 123.75 184.585938 123.816406 184.847656 C 123.882812 185.113281 124.011719 185.308594 124.144531 185.375 C 124.277344 185.441406 124.40625 185.507812 124.472656 185.441406 C 124.472656 185.441406 124.539062 185.441406 124.605469 185.375 C 124.605469 185.441406 124.671875 185.570312 124.671875 185.636719 C 124.734375 185.835938 124.800781 185.902344 124.933594 185.902344 C 125.066406 185.902344 125.195312 186.03125 125.457031 186.363281 C 125.722656 186.625 125.917969 186.820312 126.183594 186.886719 C 126.378906 186.953125 126.578125 187.085938 126.707031 187.28125 C 126.839844 187.480469 126.90625 187.546875 127.035156 187.546875 C 127.167969 187.546875 127.496094 187.742188 127.890625 188.070312 C 128.285156 188.402344 128.941406 188.664062 129.730469 188.925781 C 130.519531 189.191406 130.980469 189.386719 131.242188 189.519531 C 131.507812 189.714844 131.769531 189.78125 132.097656 189.78125 C 132.425781 189.78125 132.691406 189.847656 132.820312 189.914062 C 133.019531 190.046875 133.214844 190.046875 133.414062 190.046875 C 133.675781 189.980469 133.808594 190.046875 133.941406 190.113281 C 134.070312 190.242188 134.203125 190.242188 134.398438 190.175781 C 134.597656 190.113281 135.121094 190.113281 136.042969 190.113281 C 136.964844 190.175781 137.621094 190.046875 138.082031 189.914062 C 138.542969 189.78125 138.804688 189.714844 139.066406 189.714844 C 139.332031 189.714844 139.460938 189.714844 139.59375 189.585938 C 139.726562 189.453125 140.117188 189.320312 140.710938 189.058594 C 141.300781 188.796875 141.632812 188.730469 141.695312 188.597656 C 141.695312 188.53125 141.761719 188.53125 141.761719 188.464844 C 141.828125 188.464844 141.828125 188.464844 141.828125 188.53125 C 141.894531 188.597656 141.960938 188.53125 142.089844 188.402344 C 142.222656 188.269531 142.289062 188.203125 142.421875 188.203125 C 142.484375 188.203125 142.617188 188.136719 142.683594 187.941406 C 142.75 187.742188 142.945312 187.675781 143.144531 187.613281 C 143.339844 187.546875 143.539062 187.347656 143.800781 187.019531 C 144.0625 186.691406 144.261719 186.425781 144.523438 186.296875 C 144.785156 186.164062 144.917969 186.03125 144.917969 185.96875 C 144.917969 185.902344 145.179688 185.441406 145.640625 184.78125 C 146.167969 184.058594 146.429688 183.53125 146.496094 183.074219 C 146.628906 182.613281 146.757812 182.28125 146.957031 181.953125 C 147.152344 181.625 147.285156 181.097656 147.417969 180.308594 C 147.480469 179.519531 147.613281 179.058594 147.679688 178.929688 C 147.8125 178.730469 147.875 178.335938 147.875 177.679688 C 147.875 177.019531 148.007812 176.363281 148.140625 175.769531 C 148.269531 175.242188 148.335938 174.847656 148.269531 174.652344 C 148.207031 174.453125 148.269531 174.257812 148.335938 174.058594 C 148.402344 173.863281 148.46875 173.535156 148.402344 173.074219 C 148.335938 172.613281 148.335938 172.085938 148.46875 171.492188 C 148.597656 170.902344 148.664062 170.574219 148.730469 170.574219 C 148.796875 170.507812 148.796875 170.308594 148.730469 169.847656 C 148.664062 169.453125 148.664062 169.125 148.796875 168.996094 C 148.863281 168.863281 148.992188 168.074219 149.125 166.558594 C 149.257812 165.046875 149.386719 164.257812 149.519531 164.058594 C 149.652344 163.863281 149.71875 163.535156 149.78125 163.007812 C 149.847656 162.480469 149.980469 162.019531 150.175781 161.625 C 150.375 161.230469 150.441406 160.902344 150.441406 160.835938 C 150.441406 160.707031 150.441406 160.640625 150.570312 160.574219 C 150.636719 160.441406 150.769531 160.246094 150.769531 159.914062 C 150.769531 159.585938 150.902344 159.324219 151.097656 159.125 C 151.292969 158.929688 151.425781 158.730469 151.425781 158.46875 C 151.492188 158.269531 151.558594 158.007812 151.753906 157.746094 C 151.953125 157.480469 152.082031 157.21875 152.148438 156.957031 C 152.214844 156.691406 152.28125 156.5625 152.414062 156.496094 C 152.542969 156.429688 152.609375 156.296875 152.675781 156.035156 C 152.742188 155.769531 152.9375 155.507812 153.203125 155.246094 C 153.464844 154.980469 153.726562 154.71875 153.792969 154.390625 C 153.859375 154.0625 154.054688 153.863281 154.320312 153.730469 C 154.582031 153.601562 154.648438 153.46875 154.648438 153.335938 C 154.648438 153.207031 154.84375 153.007812 155.171875 152.8125 C 155.503906 152.613281 155.699219 152.417969 155.699219 152.21875 C 155.699219 152.019531 155.898438 151.824219 156.226562 151.496094 C 156.488281 151.230469 156.949219 150.902344 157.472656 150.574219 C 158 150.246094 158.328125 149.980469 158.328125 149.851562 C 158.394531 149.652344 158.722656 149.457031 159.25 149.191406 C 159.777344 148.929688 160.105469 148.667969 160.234375 148.46875 C 160.367188 148.273438 160.695312 148.007812 161.15625 147.746094 C 161.617188 147.480469 161.878906 147.285156 161.878906 147.21875 C 161.878906 147.152344 161.878906 147.152344 161.878906 147.085938 C 161.945312 147.085938 162.078125 147.085938 162.140625 147.085938 C 162.207031 147.085938 162.339844 147.085938 162.40625 147.085938 C 162.40625 147.085938 162.40625 147.023438 162.40625 147.023438 C 162.40625 146.957031 162.601562 146.824219 162.929688 146.757812 C 163.257812 146.691406 163.457031 146.496094 163.589844 146.363281 C 163.71875 146.230469 163.785156 146.167969 163.917969 146.167969 C 164.046875 146.167969 164.246094 146.035156 164.507812 145.835938 C 164.773438 145.640625 165.101562 145.441406 165.558594 145.246094 C 166.019531 145.046875 166.285156 144.917969 166.285156 144.785156 C 166.347656 144.652344 166.480469 144.523438 166.808594 144.523438 C 167.136719 144.457031 167.335938 144.324219 167.402344 144.191406 C 167.46875 143.996094 167.664062 143.929688 167.863281 143.929688 C 168.058594 143.863281 168.320312 143.730469 168.585938 143.402344 C 168.847656 143.140625 169.109375 142.941406 169.375 142.878906 C 169.570312 142.8125 169.898438 142.613281 170.292969 142.21875 C 170.6875 141.824219 171.082031 141.496094 171.476562 141.296875 C 171.871094 141.035156 172.070312 140.902344 172.070312 140.773438 C 172.070312 140.640625 172.265625 140.574219 172.59375 140.441406 C 172.921875 140.3125 173.121094 140.179688 173.253906 139.917969 C 173.382812 139.71875 173.515625 139.523438 173.777344 139.390625 C 174.042969 139.191406 174.171875 139.128906 174.171875 138.996094 C 174.171875 138.929688 174.304688 138.734375 174.5 138.535156 C 174.699219 138.339844 174.960938 138.007812 175.160156 137.613281 C 175.421875 137.152344 175.617188 136.890625 175.75 136.824219 C 175.949219 136.691406 176.011719 136.496094 176.144531 136.234375 C 176.277344 135.96875 176.40625 135.707031 176.671875 135.445312 C 176.933594 135.179688 177 135.046875 177 134.917969 C 176.933594 134.851562 177.066406 134.652344 177.261719 134.390625 C 177.460938 134.128906 177.523438 133.929688 177.523438 133.667969 C 177.523438 133.402344 177.589844 133.207031 177.789062 133.007812 C 177.984375 132.8125 178.050781 132.484375 178.183594 131.890625 C 178.3125 131.300781 178.445312 130.839844 178.578125 130.507812 C 178.707031 130.179688 178.839844 129.851562 178.90625 129.457031 C 178.972656 129.0625 179.039062 128.074219 179.039062 126.429688 C 179.039062 124.785156 179.101562 123.929688 179.167969 123.929688 C 179.234375 123.929688 179.167969 123.40625 179.039062 122.417969 C 178.90625 121.429688 178.839844 120.707031 178.90625 120.3125 C 178.90625 119.917969 178.839844 119.457031 178.707031 118.867188 C 178.511719 118.339844 178.445312 117.746094 178.445312 117.15625 C 178.378906 116.5625 178.3125 116.167969 178.25 116.035156 C 178.117188 115.839844 178.117188 115.640625 178.117188 115.378906 C 178.183594 115.050781 178.117188 114.917969 178.050781 114.851562 C 177.984375 114.785156 177.917969 114.589844 177.855469 114.128906 C 177.789062 113.667969 177.722656 113.472656 177.65625 113.472656 C 177.589844 113.472656 177.589844 113.472656 177.523438 113.472656 C 177.589844 113.273438 177.589844 113.140625 177.65625 112.945312 C 177.65625 112.746094 177.722656 112.617188 177.722656 112.417969 C 177.65625 112.417969 177.65625 112.417969 177.65625 112.417969 C 177.589844 112.417969 177.523438 112.351562 177.460938 112.15625 C 177.394531 111.957031 177.394531 111.695312 177.394531 111.367188 C 177.394531 111.035156 177.394531 110.640625 177.261719 110.246094 C 177.128906 109.851562 177.066406 109.589844 177.195312 109.390625 C 177.261719 109.195312 177.261719 108.933594 177.128906 108.667969 C 177.066406 108.40625 177 107.683594 177 106.433594 C 177 105.246094 176.933594 104.589844 176.867188 104.589844 C 176.800781 104.589844 176.738281 104.390625 176.738281 104.0625 C 176.671875 103.800781 176.671875 103.207031 176.738281 102.417969 C 176.800781 101.628906 176.800781 101.167969 176.867188 101.101562 C 176.933594 101.101562 177 100.3125 177 98.867188 C 177 97.417969 177.066406 96.5625 177.195312 96.367188 C 177.328125 96.167969 177.394531 95.90625 177.261719 95.445312 C 177.195312 94.984375 177.195312 94.65625 177.261719 94.457031 C 177.328125 94.261719 177.328125 93.667969 177.328125 92.8125 C 177.328125 91.894531 177.394531 91.367188 177.460938 91.234375 C 177.523438 91.105469 177.523438 90.972656 177.460938 90.839844 C 177.394531 90.710938 177.394531 90.25 177.394531 89.460938 C 177.394531 88.667969 177.394531 88.144531 177.261719 87.878906 C 177.195312 87.617188 177.128906 87.417969 177.195312 87.289062 C 177.261719 87.222656 177.261719 87.15625 177.261719 87.089844 C 177.261719 87.089844 177.195312 87.089844 177.195312 87.089844 C 177.128906 87.089844 177.066406 86.566406 176.933594 85.578125 C 176.800781 84.589844 176.738281 84 176.605469 83.800781 C 176.472656 83.605469 176.210938 82.878906 175.882812 81.695312 C 175.488281 80.511719 175.222656 79.722656 174.960938 79.394531 C 174.699219 79.066406 174.632812 78.800781 174.699219 78.734375 C 174.699219 78.734375 174.765625 78.671875 174.765625 78.605469 C 174.699219 78.605469 174.632812 78.605469 174.566406 78.539062 C 174.433594 78.472656 174.304688 78.277344 174.171875 77.945312 C 174.042969 77.617188 173.84375 77.355469 173.648438 77.222656 C 173.449219 77.089844 173.382812 77.027344 173.382812 76.894531 C 173.382812 76.828125 173.316406 76.695312 173.054688 76.566406 C 172.859375 76.367188 172.660156 76.171875 172.527344 75.90625 C 172.398438 75.644531 172.265625 75.445312 172.070312 75.382812 C 171.871094 75.316406 171.738281 75.117188 171.609375 74.855469 C 171.476562 74.65625 171.34375 74.527344 171.28125 74.527344 C 171.214844 74.527344 171.082031 74.394531 170.953125 74.132812 C 170.820312 73.867188 170.6875 73.734375 170.621094 73.734375 C 170.558594 73.734375 170.359375 73.605469 170.164062 73.339844 C 169.964844 73.078125 169.769531 72.945312 169.636719 72.945312 C 169.503906 72.945312 169.308594 72.816406 168.980469 72.550781 C 168.714844 72.289062 168.453125 72.15625 168.320312 72.15625 C 168.191406 72.15625 168.125 72.089844 168.058594 71.894531 C 167.992188 71.695312 167.863281 71.566406 167.730469 71.433594 C 167.53125 71.367188 167.335938 71.238281 167.074219 71.171875 C 166.808594 71.105469 166.679688 71.039062 166.679688 70.972656 C 166.679688 70.90625 166.414062 70.777344 165.953125 70.578125 C 165.496094 70.382812 165.230469 70.25 165.167969 70.117188 C 165.101562 69.988281 164.96875 69.921875 164.707031 69.921875 C 164.441406 69.921875 164.378906 69.855469 164.378906 69.789062 C 164.378906 69.722656 164.246094 69.65625 163.917969 69.527344 C 163.589844 69.394531 163.390625 69.328125 163.324219 69.195312 C 163.257812 69.066406 162.929688 68.933594 162.339844 68.800781 C 161.8125 68.671875 161.089844 68.40625 160.300781 68.078125 C 159.511719 67.75 158.855469 67.488281 158.394531 67.488281 C 158 67.421875 157.472656 67.289062 156.882812 67.09375 C 156.355469 66.828125 155.566406 66.695312 154.648438 66.566406 C 153.726562 66.433594 153.070312 66.367188 152.871094 66.238281 C 152.609375 66.105469 152.414062 66.039062 152.148438 66.105469 C 151.886719 66.105469 151.425781 66.105469 150.769531 65.90625 C 150.113281 65.710938 149.453125 65.644531 148.796875 65.710938 C 148.140625 65.777344 147.746094 65.710938 147.546875 65.644531 C 147.351562 65.578125 147.285156 65.511719 147.21875 65.578125 C 147.152344 65.644531 146.824219 65.644531 146.296875 65.578125 C 145.773438 65.578125 145.378906 65.578125 145.246094 65.644531 Z M 128.746094 194.980469 C 128.484375 195.046875 128.152344 195.109375 127.761719 195.046875 C 127.367188 195.046875 127.167969 195.046875 127.101562 195.175781 C 127.035156 195.242188 126.90625 195.308594 126.839844 195.242188 C 126.773438 195.175781 126.511719 195.308594 126.3125 195.441406 C 126.050781 195.636719 125.789062 195.703125 125.523438 195.769531 C 125.261719 195.835938 125.066406 195.902344 125.066406 195.964844 C 125.066406 196.03125 124.933594 196.097656 124.734375 196.097656 C 124.539062 196.097656 124.277344 196.230469 124.144531 196.425781 C 124.011719 196.625 123.816406 196.753906 123.617188 196.820312 C 123.421875 196.886719 123.222656 197.085938 122.894531 197.480469 C 122.632812 197.875 122.433594 198.070312 122.433594 198.203125 C 122.433594 198.335938 122.304688 198.464844 122.039062 198.730469 C 121.777344 198.992188 121.515625 199.453125 121.1875 200.109375 C 120.855469 200.835938 120.726562 201.230469 120.792969 201.359375 C 120.792969 201.492188 120.726562 201.625 120.59375 201.820312 C 120.460938 202.019531 120.398438 202.148438 120.460938 202.347656 C 120.527344 202.542969 120.460938 202.875 120.332031 203.335938 C 120.199219 203.792969 120.132812 204.519531 120.132812 205.375 C 120.132812 206.230469 120.199219 206.6875 120.265625 206.753906 C 120.332031 206.820312 120.332031 206.820312 120.398438 206.886719 C 120.332031 206.953125 120.332031 206.953125 120.265625 206.953125 C 120.199219 207.019531 120.265625 207.28125 120.398438 207.808594 C 120.527344 208.335938 120.59375 208.730469 120.59375 209.058594 C 120.527344 209.453125 120.59375 209.582031 120.660156 209.648438 C 120.726562 209.714844 120.792969 209.914062 120.792969 210.375 C 120.855469 210.832031 120.855469 211.097656 120.921875 211.097656 C 120.988281 211.164062 121.121094 211.425781 121.25 212.019531 C 121.449219 212.542969 121.515625 213.136719 121.582031 213.726562 C 121.582031 214.320312 121.710938 214.648438 121.84375 214.78125 C 121.976562 214.914062 122.039062 215.175781 122.039062 215.636719 C 122.039062 216.03125 122.367188 217.148438 123.027344 218.792969 C 123.683594 220.503906 124.40625 221.753906 125.195312 222.675781 C 125.984375 223.597656 126.640625 224.1875 127.234375 224.582031 C 127.824219 224.976562 128.152344 225.175781 128.21875 225.175781 C 128.351562 225.175781 128.484375 225.308594 128.746094 225.636719 C 129.007812 225.964844 129.535156 226.160156 130.257812 226.359375 C 130.980469 226.558594 131.507812 226.753906 131.769531 227.015625 C 132.03125 227.28125 132.492188 227.347656 133.085938 227.410156 C 133.675781 227.410156 134.003906 227.476562 134.003906 227.542969 C 134.070312 227.609375 134.398438 227.675781 135.058594 227.675781 C 135.386719 227.675781 135.714844 227.742188 136.042969 227.742188 C 136.042969 227.675781 136.042969 227.675781 136.042969 227.675781 C 136.042969 227.609375 136.042969 227.609375 136.042969 227.542969 C 136.242188 227.542969 136.4375 227.542969 136.636719 227.542969 C 137.027344 227.542969 137.359375 227.609375 137.554688 227.675781 C 137.753906 227.742188 137.882812 227.742188 138.015625 227.609375 C 138.148438 227.542969 138.410156 227.410156 138.9375 227.347656 C 139.460938 227.28125 139.921875 227.148438 140.316406 226.886719 C 140.710938 226.621094 141.105469 226.492188 141.566406 226.359375 C 141.960938 226.226562 142.222656 226.160156 142.222656 226.097656 C 142.222656 226.03125 142.617188 225.765625 143.339844 225.371094 C 144.0625 224.976562 144.523438 224.714844 144.523438 224.582031 C 144.589844 224.453125 144.722656 224.320312 144.984375 224.253906 C 145.246094 224.1875 145.378906 224.058594 145.378906 223.992188 C 145.378906 223.925781 145.507812 223.726562 145.707031 223.464844 C 145.902344 223.203125 146.101562 223.070312 146.296875 222.9375 C 146.496094 222.808594 146.628906 222.675781 146.757812 222.347656 C 146.890625 222.015625 147.023438 221.820312 147.152344 221.820312 C 147.285156 221.820312 147.417969 221.6875 147.546875 221.558594 C 147.679688 221.425781 147.8125 221.097656 147.875 220.703125 C 148.007812 220.308594 148.140625 219.976562 148.335938 219.648438 C 148.535156 219.320312 148.597656 219.121094 148.597656 218.992188 C 148.535156 218.859375 148.664062 218.726562 148.796875 218.597656 C 148.992188 218.464844 149.191406 217.871094 149.386719 216.753906 C 149.652344 215.636719 149.71875 214.976562 149.652344 214.78125 C 149.585938 214.582031 149.585938 214.125 149.585938 213.464844 C 149.585938 212.808594 149.453125 211.753906 149.125 210.4375 C 148.796875 209.125 148.597656 208.335938 148.597656 208.070312 C 148.597656 207.808594 148.535156 207.609375 148.46875 207.542969 C 148.335938 207.414062 148.335938 207.28125 148.335938 207.019531 C 148.335938 206.753906 148.269531 206.625 148.140625 206.492188 C 148.007812 206.359375 147.875 206.03125 147.613281 205.375 C 147.417969 204.714844 147.21875 204.320312 147.085938 204.253906 C 146.890625 204.125 146.691406 203.792969 146.429688 203.136719 C 146.167969 202.546875 145.902344 202.148438 145.707031 202.019531 C 145.507812 201.886719 145.378906 201.753906 145.378906 201.558594 C 145.378906 201.359375 145.246094 201.164062 145.050781 200.964844 C 144.851562 200.769531 144.65625 200.570312 144.390625 200.441406 C 144.195312 200.375 143.996094 200.175781 143.867188 199.980469 C 143.734375 199.78125 143.601562 199.648438 143.40625 199.648438 C 143.207031 199.648438 143.078125 199.453125 142.8125 199.191406 C 142.550781 198.925781 142.289062 198.730469 142.027344 198.664062 C 141.761719 198.597656 141.300781 198.269531 140.710938 197.875 C 140.117188 197.480469 139.59375 197.152344 139.199219 197.019531 C 138.804688 196.886719 138.542969 196.753906 138.476562 196.691406 C 138.410156 196.625 138.082031 196.492188 137.421875 196.296875 C 136.765625 196.097656 136.4375 195.964844 136.371094 195.902344 C 136.304688 195.835938 136.109375 195.769531 135.847656 195.769531 C 135.515625 195.769531 135.320312 195.703125 135.121094 195.636719 C 134.925781 195.507812 134.398438 195.375 133.546875 195.175781 C 132.691406 194.980469 131.96875 194.847656 131.375 194.847656 C 130.785156 194.78125 130.457031 194.847656 130.257812 194.914062 C 130.0625 194.980469 129.863281 194.980469 129.535156 194.914062 C 129.335938 194.847656 129.074219 194.914062 128.746094 194.980469 Z M 128.746094 194.980469 " fill-opacity="1" fill-rule="nonzero"/></g></svg>