<svg xmlns="http://www.w3.org/2000/svg" xmlns:xlink="http://www.w3.org/1999/xlink" width="377" zoomAndPan="magnify" viewBox="0 0 282.96 283.499989" height="377" preserveAspectRatio="xMidYMid meet" version="1.0"><defs><clipPath id="9a5abb8913"><path d="M 0.230469 0 L 282.691406 0 L 282.691406 283 L 0.230469 283 Z M 0.230469 0 " clip-rule="nonzero"/></clipPath><clipPath id="633a7966f3"><path d="M 34.824219 83.246094 L 248.945312 83.246094 L 248.945312 214.265625 L 34.824219 214.265625 Z M 34.824219 83.246094 " clip-rule="nonzero"/></clipPath><clipPath id="bf9394d387"><path d="M 34.824219 83.246094 L 248.945312 83.246094 L 248.945312 214.265625 L 34.824219 214.265625 Z M 34.824219 83.246094 " clip-rule="nonzero"/></clipPath></defs><g clip-path="url(#9a5abb8913)"><path fill="#ffffff" d="M 0.230469 0 L 283.230469 0 L 283.230469 283 L 0.230469 283 Z M 0.230469 0 " fill-opacity="1" fill-rule="nonzero"/><path fill="#ffffff" d="M 0.230469 0 L 283.230469 0 L 283.230469 283 L 0.230469 283 Z M 0.230469 0 " fill-opacity="1" fill-rule="nonzero"/></g><g clip-path="url(#633a7966f3)"><path fill="#f8e37a" d="M 34.855469 83.246094 L 248.917969 83.246094 L 248.917969 214.265625 L 34.855469 214.265625 Z M 34.855469 83.246094 " fill-opacity="1" fill-rule="nonzero"/></g><path fill="#7aadcc" d="M 48.664062 90.140625 L 48.664062 97.035156 L 41.761719 97.035156 L 41.761719 90.140625 Z M 62.476562 90.140625 L 55.570312 90.140625 L 55.570312 97.035156 L 62.476562 97.035156 Z M 76.285156 90.140625 L 69.382812 90.140625 L 69.382812 97.035156 L 76.285156 97.035156 Z M 90.097656 90.140625 L 83.191406 90.140625 L 83.191406 97.035156 L 90.097656 97.035156 Z M 103.90625 90.140625 L 97.003906 90.140625 L 97.003906 97.035156 L 103.90625 97.035156 Z M 117.71875 90.140625 L 110.8125 90.140625 L 110.8125 97.035156 L 117.71875 97.035156 Z M 131.527344 90.140625 L 124.625 90.140625 L 124.625 97.035156 L 131.527344 97.035156 Z M 145.339844 90.140625 L 138.433594 90.140625 L 138.433594 97.035156 L 145.339844 97.035156 Z M 159.148438 90.140625 L 152.242188 90.140625 L 152.242188 97.035156 L 159.148438 97.035156 Z M 172.960938 90.140625 L 166.054688 90.140625 L 166.054688 97.035156 L 172.960938 97.035156 Z M 186.769531 90.140625 L 179.863281 90.140625 L 179.863281 97.035156 L 186.769531 97.035156 Z M 200.582031 90.140625 L 193.675781 90.140625 L 193.675781 97.035156 L 200.582031 97.035156 Z M 214.390625 90.140625 L 207.484375 90.140625 L 207.484375 97.035156 L 214.390625 97.035156 Z M 228.199219 90.140625 L 221.296875 90.140625 L 221.296875 97.035156 L 228.199219 97.035156 Z M 242.011719 90.140625 L 235.105469 90.140625 L 235.105469 97.035156 L 242.011719 97.035156 Z M 55.570312 97.035156 L 48.664062 97.035156 L 48.664062 103.933594 L 55.570312 103.933594 Z M 69.382812 103.933594 L 69.382812 97.035156 L 62.476562 97.035156 L 62.476562 103.933594 Z M 83.191406 103.933594 L 83.191406 97.035156 L 76.285156 97.035156 L 76.285156 103.933594 Z M 97.003906 103.933594 L 97.003906 97.035156 L 90.097656 97.035156 L 90.097656 103.933594 Z M 110.8125 103.933594 L 110.8125 97.035156 L 103.90625 97.035156 L 103.90625 103.933594 Z M 124.625 103.933594 L 124.625 97.035156 L 117.71875 97.035156 L 117.71875 103.933594 Z M 138.433594 103.933594 L 138.433594 97.035156 L 131.527344 97.035156 L 131.527344 103.933594 Z M 152.242188 103.933594 L 152.242188 97.035156 L 145.339844 97.035156 L 145.339844 103.933594 Z M 166.054688 103.933594 L 166.054688 97.035156 L 159.148438 97.035156 L 159.148438 103.933594 Z M 179.863281 103.933594 L 179.863281 97.035156 L 172.960938 97.035156 L 172.960938 103.933594 Z M 193.675781 103.933594 L 193.675781 97.035156 L 186.769531 97.035156 L 186.769531 103.933594 Z M 207.484375 103.933594 L 207.484375 97.035156 L 200.582031 97.035156 L 200.582031 103.933594 Z M 221.296875 103.933594 L 221.296875 97.035156 L 214.390625 97.035156 L 214.390625 103.933594 Z M 228.199219 97.035156 L 228.199219 103.933594 L 235.105469 103.933594 L 235.105469 97.035156 Z M 41.761719 103.933594 L 41.761719 110.828125 L 48.664062 110.828125 L 48.664062 103.933594 Z M 62.476562 103.933594 L 55.570312 103.933594 L 55.570312 110.828125 L 62.476562 110.828125 Z M 76.285156 110.828125 L 76.285156 103.933594 L 69.382812 103.933594 L 69.382812 110.828125 Z M 90.097656 110.828125 L 90.097656 103.933594 L 83.191406 103.933594 L 83.191406 110.828125 Z M 103.90625 110.828125 L 103.90625 103.933594 L 97.003906 103.933594 L 97.003906 110.828125 Z M 117.71875 110.828125 L 117.71875 103.933594 L 110.8125 103.933594 L 110.8125 110.828125 Z M 131.527344 110.828125 L 131.527344 103.933594 L 124.625 103.933594 L 124.625 110.828125 Z M 145.339844 110.828125 L 145.339844 103.933594 L 138.433594 103.933594 L 138.433594 110.828125 Z M 159.148438 110.828125 L 159.148438 103.933594 L 152.242188 103.933594 L 152.242188 110.828125 Z M 172.960938 110.828125 L 172.960938 103.933594 L 166.054688 103.933594 L 166.054688 110.828125 Z M 186.769531 110.828125 L 186.769531 103.933594 L 179.863281 103.933594 L 179.863281 110.828125 Z M 200.582031 110.828125 L 200.582031 103.933594 L 193.675781 103.933594 L 193.675781 110.828125 Z M 214.390625 110.828125 L 214.390625 103.933594 L 207.484375 103.933594 L 207.484375 110.828125 Z M 221.296875 110.828125 L 228.199219 110.828125 L 228.199219 103.933594 L 221.296875 103.933594 Z M 242.011719 110.828125 L 242.011719 103.933594 L 235.105469 103.933594 L 235.105469 110.828125 Z M 55.570312 110.828125 L 48.664062 110.828125 L 48.664062 117.722656 L 55.570312 117.722656 Z M 69.382812 110.828125 L 62.476562 110.828125 L 62.476562 117.722656 L 69.382812 117.722656 Z M 83.191406 117.722656 L 83.191406 110.828125 L 76.285156 110.828125 L 76.285156 117.722656 Z M 97.003906 117.722656 L 97.003906 110.828125 L 90.097656 110.828125 L 90.097656 117.722656 Z M 110.8125 117.722656 L 110.8125 110.828125 L 103.90625 110.828125 L 103.90625 117.722656 Z M 124.625 117.722656 L 124.625 110.828125 L 117.71875 110.828125 L 117.71875 117.722656 Z M 138.433594 117.722656 L 138.433594 110.828125 L 131.527344 110.828125 L 131.527344 117.722656 Z M 152.242188 117.722656 L 152.242188 110.828125 L 145.339844 110.828125 L 145.339844 117.722656 Z M 166.054688 117.722656 L 166.054688 110.828125 L 159.148438 110.828125 L 159.148438 117.722656 Z M 179.863281 117.722656 L 179.863281 110.828125 L 172.960938 110.828125 L 172.960938 117.722656 Z M 193.675781 117.722656 L 193.675781 110.828125 L 186.769531 110.828125 L 186.769531 117.722656 Z M 207.484375 117.722656 L 207.484375 110.828125 L 200.582031 110.828125 L 200.582031 117.722656 Z M 214.390625 117.722656 L 221.296875 117.722656 L 221.296875 110.828125 L 214.390625 110.828125 Z M 228.199219 117.722656 L 235.105469 117.722656 L 235.105469 110.828125 L 228.199219 110.828125 Z M 41.761719 117.722656 L 41.761719 124.621094 L 48.664062 124.621094 L 48.664062 117.722656 Z M 62.476562 117.722656 L 55.570312 117.722656 L 55.570312 124.621094 L 62.476562 124.621094 Z M 76.285156 117.722656 L 69.382812 117.722656 L 69.382812 124.621094 L 76.285156 124.621094 Z M 90.097656 124.621094 L 90.097656 117.722656 L 83.191406 117.722656 L 83.191406 124.621094 Z M 103.90625 124.621094 L 103.90625 117.722656 L 97.003906 117.722656 L 97.003906 124.621094 Z M 117.71875 124.621094 L 117.71875 117.722656 L 110.8125 117.722656 L 110.8125 124.621094 Z M 131.527344 124.621094 L 131.527344 117.722656 L 124.625 117.722656 L 124.625 124.621094 Z M 145.339844 124.621094 L 145.339844 117.722656 L 138.433594 117.722656 L 138.433594 124.621094 Z M 159.148438 124.621094 L 159.148438 117.722656 L 152.242188 117.722656 L 152.242188 124.621094 Z M 172.960938 124.621094 L 172.960938 117.722656 L 166.054688 117.722656 L 166.054688 124.621094 Z M 186.769531 124.621094 L 186.769531 117.722656 L 179.863281 117.722656 L 179.863281 124.621094 Z M 200.582031 124.621094 L 200.582031 117.722656 L 193.675781 117.722656 L 193.675781 124.621094 Z M 207.484375 124.621094 L 214.390625 124.621094 L 214.390625 117.722656 L 207.484375 117.722656 Z M 221.296875 124.621094 L 228.199219 124.621094 L 228.199219 117.722656 L 221.296875 117.722656 Z M 242.011719 124.621094 L 242.011719 117.722656 L 235.105469 117.722656 L 235.105469 124.621094 Z M 55.570312 124.621094 L 48.664062 124.621094 L 48.664062 131.515625 L 55.570312 131.515625 Z M 69.382812 124.621094 L 62.476562 124.621094 L 62.476562 131.515625 L 69.382812 131.515625 Z M 83.191406 124.621094 L 76.285156 124.621094 L 76.285156 131.515625 L 83.191406 131.515625 Z M 97.003906 131.515625 L 97.003906 124.621094 L 90.097656 124.621094 L 90.097656 131.515625 Z M 110.8125 131.515625 L 110.8125 124.621094 L 103.90625 124.621094 L 103.90625 131.515625 Z M 124.625 131.515625 L 124.625 124.621094 L 117.71875 124.621094 L 117.71875 131.515625 Z M 138.433594 131.515625 L 138.433594 124.621094 L 131.527344 124.621094 L 131.527344 131.515625 Z M 152.242188 131.515625 L 152.242188 124.621094 L 145.339844 124.621094 L 145.339844 131.515625 Z M 166.054688 131.515625 L 166.054688 124.621094 L 159.148438 124.621094 L 159.148438 131.515625 Z M 179.863281 131.515625 L 179.863281 124.621094 L 172.960938 124.621094 L 172.960938 131.515625 Z M 193.675781 131.515625 L 193.675781 124.621094 L 186.769531 124.621094 L 186.769531 131.515625 Z M 200.582031 131.515625 L 207.484375 131.515625 L 207.484375 124.621094 L 200.582031 124.621094 Z M 214.390625 131.515625 L 221.296875 131.515625 L 221.296875 124.621094 L 214.390625 124.621094 Z M 228.199219 131.515625 L 235.105469 131.515625 L 235.105469 124.621094 L 228.199219 124.621094 Z M 41.761719 131.515625 L 41.761719 138.410156 L 48.664062 138.410156 L 48.664062 131.515625 Z M 62.476562 131.515625 L 55.570312 131.515625 L 55.570312 138.410156 L 62.476562 138.410156 Z M 76.285156 131.515625 L 69.382812 131.515625 L 69.382812 138.410156 L 76.285156 138.410156 Z M 90.097656 131.515625 L 83.191406 131.515625 L 83.191406 138.410156 L 90.097656 138.410156 Z M 103.90625 138.410156 L 103.90625 131.515625 L 97.003906 131.515625 L 97.003906 138.410156 Z M 117.71875 138.410156 L 117.71875 131.515625 L 110.8125 131.515625 L 110.8125 138.410156 Z M 131.527344 138.410156 L 131.527344 131.515625 L 124.625 131.515625 L 124.625 138.410156 Z M 145.339844 138.410156 L 145.339844 131.515625 L 138.433594 131.515625 L 138.433594 138.410156 Z M 159.148438 138.410156 L 159.148438 131.515625 L 152.242188 131.515625 L 152.242188 138.410156 Z M 172.960938 138.410156 L 172.960938 131.515625 L 166.054688 131.515625 L 166.054688 138.410156 Z M 186.769531 138.410156 L 186.769531 131.515625 L 179.863281 131.515625 L 179.863281 138.410156 Z M 193.675781 138.410156 L 200.582031 138.410156 L 200.582031 131.515625 L 193.675781 131.515625 Z M 207.484375 138.410156 L 214.390625 138.410156 L 214.390625 131.515625 L 207.484375 131.515625 Z M 221.296875 138.410156 L 228.199219 138.410156 L 228.199219 131.515625 L 221.296875 131.515625 Z M 242.011719 138.410156 L 242.011719 131.515625 L 235.105469 131.515625 L 235.105469 138.410156 Z M 55.570312 138.410156 L 48.664062 138.410156 L 48.664062 145.308594 L 55.570312 145.308594 Z M 69.382812 138.410156 L 62.476562 138.410156 L 62.476562 145.308594 L 69.382812 145.308594 Z M 83.191406 138.410156 L 76.285156 138.410156 L 76.285156 145.308594 L 83.191406 145.308594 Z M 97.003906 138.410156 L 90.097656 138.410156 L 90.097656 145.308594 L 97.003906 145.308594 Z M 110.8125 145.308594 L 110.8125 138.410156 L 103.90625 138.410156 L 103.90625 145.308594 Z M 124.625 145.308594 L 124.625 138.410156 L 117.71875 138.410156 L 117.71875 145.308594 Z M 138.433594 145.308594 L 138.433594 138.410156 L 131.527344 138.410156 L 131.527344 145.308594 Z M 152.242188 145.308594 L 152.242188 138.410156 L 145.339844 138.410156 L 145.339844 145.308594 Z M 166.054688 145.308594 L 166.054688 138.410156 L 159.148438 138.410156 L 159.148438 145.308594 Z M 179.863281 145.308594 L 179.863281 138.410156 L 172.960938 138.410156 L 172.960938 145.308594 Z M 186.769531 145.308594 L 193.675781 145.308594 L 193.675781 138.410156 L 186.769531 138.410156 Z M 200.582031 145.308594 L 207.484375 145.308594 L 207.484375 138.410156 L 200.582031 138.410156 Z M 214.390625 145.308594 L 221.296875 145.308594 L 221.296875 138.410156 L 214.390625 138.410156 Z M 228.199219 145.308594 L 235.105469 145.308594 L 235.105469 138.410156 L 228.199219 138.410156 Z M 41.761719 145.308594 L 41.761719 152.203125 L 48.664062 152.203125 L 48.664062 145.308594 Z M 62.476562 145.308594 L 55.570312 145.308594 L 55.570312 152.203125 L 62.476562 152.203125 Z M 76.285156 145.308594 L 69.382812 145.308594 L 69.382812 152.203125 L 76.285156 152.203125 Z M 90.097656 145.308594 L 83.191406 145.308594 L 83.191406 152.203125 L 90.097656 152.203125 Z M 97.003906 145.308594 L 97.003906 152.203125 L 103.90625 152.203125 L 103.90625 145.308594 Z M 110.8125 145.308594 L 110.8125 152.203125 L 117.71875 152.203125 L 117.71875 145.308594 Z M 124.625 145.308594 L 124.625 152.203125 L 131.527344 152.203125 L 131.527344 145.308594 Z M 138.433594 145.308594 L 138.433594 152.203125 L 145.339844 152.203125 L 145.339844 145.308594 Z M 152.242188 145.308594 L 152.242188 152.203125 L 159.148438 152.203125 L 159.148438 145.308594 Z M 166.054688 145.308594 L 166.054688 152.203125 L 172.960938 152.203125 L 172.960938 145.308594 Z M 179.863281 152.203125 L 186.769531 152.203125 L 186.769531 145.308594 L 179.863281 145.308594 Z M 193.675781 152.203125 L 200.582031 152.203125 L 200.582031 145.308594 L 193.675781 145.308594 Z M 207.484375 152.203125 L 214.390625 152.203125 L 214.390625 145.308594 L 207.484375 145.308594 Z M 221.296875 152.203125 L 228.199219 152.203125 L 228.199219 145.308594 L 221.296875 145.308594 Z M 242.011719 152.203125 L 242.011719 145.308594 L 235.105469 145.308594 L 235.105469 152.203125 Z M 55.570312 152.203125 L 48.664062 152.203125 L 48.664062 159.097656 L 55.570312 159.097656 Z M 69.382812 152.203125 L 62.476562 152.203125 L 62.476562 159.097656 L 69.382812 159.097656 Z M 83.191406 152.203125 L 76.285156 152.203125 L 76.285156 159.097656 L 83.191406 159.097656 Z M 90.097656 152.203125 L 90.097656 159.097656 L 97.003906 159.097656 L 97.003906 152.203125 Z M 103.90625 152.203125 L 103.90625 159.097656 L 110.8125 159.097656 L 110.8125 152.203125 Z M 117.71875 152.203125 L 117.71875 159.097656 L 124.625 159.097656 L 124.625 152.203125 Z M 131.527344 152.203125 L 131.527344 159.097656 L 138.433594 159.097656 L 138.433594 152.203125 Z M 145.339844 152.203125 L 145.339844 159.097656 L 152.242188 159.097656 L 152.242188 152.203125 Z M 159.148438 152.203125 L 159.148438 159.097656 L 166.054688 159.097656 L 166.054688 152.203125 Z M 172.960938 152.203125 L 172.960938 159.097656 L 179.863281 159.097656 L 179.863281 152.203125 Z M 186.769531 159.097656 L 193.675781 159.097656 L 193.675781 152.203125 L 186.769531 152.203125 Z M 200.582031 159.097656 L 207.484375 159.097656 L 207.484375 152.203125 L 200.582031 152.203125 Z M 214.390625 159.097656 L 221.296875 159.097656 L 221.296875 152.203125 L 214.390625 152.203125 Z M 228.199219 159.097656 L 235.105469 159.097656 L 235.105469 152.203125 L 228.199219 152.203125 Z M 41.761719 159.097656 L 41.761719 165.996094 L 48.664062 165.996094 L 48.664062 159.097656 Z M 62.476562 159.097656 L 55.570312 159.097656 L 55.570312 165.996094 L 62.476562 165.996094 Z M 76.285156 159.097656 L 69.382812 159.097656 L 69.382812 165.996094 L 76.285156 165.996094 Z M 83.191406 159.097656 L 83.191406 165.996094 L 90.097656 165.996094 L 90.097656 159.097656 Z M 97.003906 159.097656 L 97.003906 165.996094 L 103.90625 165.996094 L 103.90625 159.097656 Z M 110.8125 159.097656 L 110.8125 165.996094 L 117.71875 165.996094 L 117.71875 159.097656 Z M 124.625 159.097656 L 124.625 165.996094 L 131.527344 165.996094 L 131.527344 159.097656 Z M 138.433594 159.097656 L 138.433594 165.996094 L 145.339844 165.996094 L 145.339844 159.097656 Z M 152.242188 159.097656 L 152.242188 165.996094 L 159.148438 165.996094 L 159.148438 159.097656 Z M 166.054688 159.097656 L 166.054688 165.996094 L 172.960938 165.996094 L 172.960938 159.097656 Z M 179.863281 159.097656 L 179.863281 165.996094 L 186.769531 165.996094 L 186.769531 159.097656 Z M 193.675781 165.996094 L 200.582031 165.996094 L 200.582031 159.097656 L 193.675781 159.097656 Z M 207.484375 165.996094 L 214.390625 165.996094 L 214.390625 159.097656 L 207.484375 159.097656 Z M 221.296875 165.996094 L 228.199219 165.996094 L 228.199219 159.097656 L 221.296875 159.097656 Z M 242.011719 165.996094 L 242.011719 159.097656 L 235.105469 159.097656 L 235.105469 165.996094 Z M 55.570312 165.996094 L 48.664062 165.996094 L 48.664062 172.890625 L 55.570312 172.890625 Z M 69.382812 165.996094 L 62.476562 165.996094 L 62.476562 172.890625 L 69.382812 172.890625 Z M 76.285156 165.996094 L 76.285156 172.890625 L 83.191406 172.890625 L 83.191406 165.996094 Z M 90.097656 165.996094 L 90.097656 172.890625 L 97.003906 172.890625 L 97.003906 165.996094 Z M 103.90625 165.996094 L 103.90625 172.890625 L 110.8125 172.890625 L 110.8125 165.996094 Z M 117.71875 165.996094 L 117.71875 172.890625 L 124.625 172.890625 L 124.625 165.996094 Z M 131.527344 165.996094 L 131.527344 172.890625 L 138.433594 172.890625 L 138.433594 165.996094 Z M 145.339844 165.996094 L 145.339844 172.890625 L 152.242188 172.890625 L 152.242188 165.996094 Z M 159.148438 165.996094 L 159.148438 172.890625 L 166.054688 172.890625 L 166.054688 165.996094 Z M 172.960938 165.996094 L 172.960938 172.890625 L 179.863281 172.890625 L 179.863281 165.996094 Z M 186.769531 165.996094 L 186.769531 172.890625 L 193.675781 172.890625 L 193.675781 165.996094 Z M 200.582031 172.890625 L 207.484375 172.890625 L 207.484375 165.996094 L 200.582031 165.996094 Z M 214.390625 172.890625 L 221.296875 172.890625 L 221.296875 165.996094 L 214.390625 165.996094 Z M 228.199219 172.890625 L 235.105469 172.890625 L 235.105469 165.996094 L 228.199219 165.996094 Z M 41.761719 172.890625 L 41.761719 179.785156 L 48.664062 179.785156 L 48.664062 172.890625 Z M 62.476562 172.890625 L 55.570312 172.890625 L 55.570312 179.785156 L 62.476562 179.785156 Z M 69.382812 172.890625 L 69.382812 179.785156 L 76.285156 179.785156 L 76.285156 172.890625 Z M 83.191406 172.890625 L 83.191406 179.785156 L 90.097656 179.785156 L 90.097656 172.890625 Z M 97.003906 172.890625 L 97.003906 179.785156 L 103.90625 179.785156 L 103.90625 172.890625 Z M 110.8125 172.890625 L 110.8125 179.785156 L 117.71875 179.785156 L 117.71875 172.890625 Z M 124.625 172.890625 L 124.625 179.785156 L 131.527344 179.785156 L 131.527344 172.890625 Z M 138.433594 172.890625 L 138.433594 179.785156 L 145.339844 179.785156 L 145.339844 172.890625 Z M 152.242188 172.890625 L 152.242188 179.785156 L 159.148438 179.785156 L 159.148438 172.890625 Z M 166.054688 172.890625 L 166.054688 179.785156 L 172.960938 179.785156 L 172.960938 172.890625 Z M 179.863281 172.890625 L 179.863281 179.785156 L 186.769531 179.785156 L 186.769531 172.890625 Z M 193.675781 172.890625 L 193.675781 179.785156 L 200.582031 179.785156 L 200.582031 172.890625 Z M 207.484375 179.785156 L 214.390625 179.785156 L 214.390625 172.890625 L 207.484375 172.890625 Z M 221.296875 179.785156 L 228.199219 179.785156 L 228.199219 172.890625 L 221.296875 172.890625 Z M 242.011719 179.785156 L 242.011719 172.890625 L 235.105469 172.890625 L 235.105469 179.785156 Z M 55.570312 179.785156 L 48.664062 179.785156 L 48.664062 186.679688 L 55.570312 186.679688 Z M 62.476562 179.785156 L 62.476562 186.679688 L 69.382812 186.679688 L 69.382812 179.785156 Z M 76.285156 179.785156 L 76.285156 186.679688 L 83.191406 186.679688 L 83.191406 179.785156 Z M 90.097656 179.785156 L 90.097656 186.679688 L 97.003906 186.679688 L 97.003906 179.785156 Z M 103.90625 179.785156 L 103.90625 186.679688 L 110.8125 186.679688 L 110.8125 179.785156 Z M 117.71875 179.785156 L 117.71875 186.679688 L 124.625 186.679688 L 124.625 179.785156 Z M 131.527344 179.785156 L 131.527344 186.679688 L 138.433594 186.679688 L 138.433594 179.785156 Z M 145.339844 179.785156 L 145.339844 186.679688 L 152.242188 186.679688 L 152.242188 179.785156 Z M 159.148438 179.785156 L 159.148438 186.679688 L 166.054688 186.679688 L 166.054688 179.785156 Z M 172.960938 179.785156 L 172.960938 186.679688 L 179.863281 186.679688 L 179.863281 179.785156 Z M 186.769531 179.785156 L 186.769531 186.679688 L 193.675781 186.679688 L 193.675781 179.785156 Z M 200.582031 179.785156 L 200.582031 186.679688 L 207.484375 186.679688 L 207.484375 179.785156 Z M 214.390625 186.679688 L 221.296875 186.679688 L 221.296875 179.785156 L 214.390625 179.785156 Z M 228.199219 186.679688 L 235.105469 186.679688 L 235.105469 179.785156 L 228.199219 179.785156 Z M 41.761719 186.679688 L 41.761719 193.578125 L 48.664062 193.578125 L 48.664062 186.679688 Z M 55.570312 186.679688 L 55.570312 193.578125 L 62.476562 193.578125 L 62.476562 186.679688 Z M 69.382812 186.679688 L 69.382812 193.578125 L 76.285156 193.578125 L 76.285156 186.679688 Z M 83.191406 186.679688 L 83.191406 193.578125 L 90.097656 193.578125 L 90.097656 186.679688 Z M 97.003906 186.679688 L 97.003906 193.578125 L 103.90625 193.578125 L 103.90625 186.679688 Z M 110.8125 186.679688 L 110.8125 193.578125 L 117.71875 193.578125 L 117.71875 186.679688 Z M 124.625 186.679688 L 124.625 193.578125 L 131.527344 193.578125 L 131.527344 186.679688 Z M 138.433594 186.679688 L 138.433594 193.578125 L 145.339844 193.578125 L 145.339844 186.679688 Z M 152.242188 186.679688 L 152.242188 193.578125 L 159.148438 193.578125 L 159.148438 186.679688 Z M 166.054688 186.679688 L 166.054688 193.578125 L 172.960938 193.578125 L 172.960938 186.679688 Z M 179.863281 186.679688 L 179.863281 193.578125 L 186.769531 193.578125 L 186.769531 186.679688 Z M 193.675781 186.679688 L 193.675781 193.578125 L 200.582031 193.578125 L 200.582031 186.679688 Z M 207.484375 186.679688 L 207.484375 193.578125 L 214.390625 193.578125 L 214.390625 186.679688 Z M 221.296875 193.578125 L 228.199219 193.578125 L 228.199219 186.679688 L 221.296875 186.679688 Z M 242.011719 193.578125 L 242.011719 186.679688 L 235.105469 186.679688 L 235.105469 193.578125 Z M 41.761719 207.367188 L 48.664062 207.367188 L 48.664062 200.472656 L 41.761719 200.472656 Z M 55.570312 207.367188 L 62.476562 207.367188 L 62.476562 200.472656 L 55.570312 200.472656 Z M 69.382812 207.367188 L 76.285156 207.367188 L 76.285156 200.472656 L 69.382812 200.472656 Z M 83.191406 207.367188 L 90.097656 207.367188 L 90.097656 200.472656 L 83.191406 200.472656 Z M 97.003906 207.367188 L 103.90625 207.367188 L 103.90625 200.472656 L 97.003906 200.472656 Z M 110.8125 207.367188 L 117.71875 207.367188 L 117.71875 200.472656 L 110.8125 200.472656 Z M 124.625 207.367188 L 131.527344 207.367188 L 131.527344 200.472656 L 124.625 200.472656 Z M 138.433594 207.367188 L 145.339844 207.367188 L 145.339844 200.472656 L 138.433594 200.472656 Z M 152.242188 207.367188 L 159.148438 207.367188 L 159.148438 200.472656 L 152.242188 200.472656 Z M 166.054688 207.367188 L 172.960938 207.367188 L 172.960938 200.472656 L 166.054688 200.472656 Z M 179.863281 207.367188 L 186.769531 207.367188 L 186.769531 200.472656 L 179.863281 200.472656 Z M 193.675781 207.367188 L 200.582031 207.367188 L 200.582031 200.472656 L 193.675781 200.472656 Z M 207.484375 207.367188 L 214.390625 207.367188 L 214.390625 200.472656 L 207.484375 200.472656 Z M 221.296875 207.367188 L 228.199219 207.367188 L 228.199219 200.472656 L 221.296875 200.472656 Z M 242.011719 207.367188 L 242.011719 200.472656 L 235.105469 200.472656 L 235.105469 207.367188 Z M 48.664062 193.578125 L 48.664062 200.472656 L 55.570312 200.472656 L 55.570312 193.578125 Z M 62.476562 193.578125 L 62.476562 200.472656 L 69.382812 200.472656 L 69.382812 193.578125 Z M 76.285156 193.578125 L 76.285156 200.472656 L 83.191406 200.472656 L 83.191406 193.578125 Z M 90.097656 193.578125 L 90.097656 200.472656 L 97.003906 200.472656 L 97.003906 193.578125 Z M 103.90625 193.578125 L 103.90625 200.472656 L 110.8125 200.472656 L 110.8125 193.578125 Z M 117.71875 193.578125 L 117.71875 200.472656 L 124.625 200.472656 L 124.625 193.578125 Z M 131.527344 193.578125 L 131.527344 200.472656 L 138.433594 200.472656 L 138.433594 193.578125 Z M 145.339844 193.578125 L 145.339844 200.472656 L 152.242188 200.472656 L 152.242188 193.578125 Z M 159.148438 193.578125 L 159.148438 200.472656 L 166.054688 200.472656 L 166.054688 193.578125 Z M 172.960938 193.578125 L 172.960938 200.472656 L 179.863281 200.472656 L 179.863281 193.578125 Z M 186.769531 193.578125 L 186.769531 200.472656 L 193.675781 200.472656 L 193.675781 193.578125 Z M 200.582031 193.578125 L 200.582031 200.472656 L 207.484375 200.472656 L 207.484375 193.578125 Z M 214.390625 193.578125 L 214.390625 200.472656 L 221.296875 200.472656 L 221.296875 193.578125 Z M 228.199219 200.472656 L 235.105469 200.472656 L 235.105469 193.578125 L 228.199219 193.578125 Z M 228.199219 200.472656 " fill-opacity="1" fill-rule="nonzero"/><path fill="#ffffff" d="M 235.105469 97.035156 L 235.105469 207.367188 L 242.011719 207.367188 L 242.011719 90.140625 L 41.761719 90.140625 L 41.761719 97.035156 Z M 235.105469 97.035156 " fill-opacity="0.5" fill-rule="nonzero"/><path fill="#000000" d="M 48.664062 200.472656 L 48.664062 103.933594 L 55.570312 103.933594 L 55.570312 97.035156 L 41.761719 97.035156 L 41.761719 207.367188 L 235.105469 207.367188 L 235.105469 200.472656 Z M 48.664062 200.472656 " fill-opacity="0.3" fill-rule="nonzero"/><path fill="#000000" d="M 55.570312 103.933594 L 69.382812 103.933594 L 69.382812 110.828125 L 55.570312 110.828125 Z M 55.570312 103.933594 " fill-opacity="0.3" fill-rule="nonzero"/><path fill="#000000" d="M 69.382812 110.828125 L 83.191406 110.828125 L 83.191406 117.722656 L 69.382812 117.722656 Z M 69.382812 110.828125 " fill-opacity="0.3" fill-rule="nonzero"/><path fill="#000000" d="M 83.191406 117.722656 L 97.003906 117.722656 L 97.003906 124.621094 L 83.191406 124.621094 Z M 83.191406 117.722656 " fill-opacity="0.3" fill-rule="nonzero"/><path fill="#000000" d="M 97.003906 124.621094 L 110.8125 124.621094 L 110.8125 131.515625 L 97.003906 131.515625 Z M 97.003906 124.621094 " fill-opacity="0.3" fill-rule="nonzero"/><path fill="#000000" d="M 110.8125 131.515625 L 124.625 131.515625 L 124.625 138.410156 L 110.8125 138.410156 Z M 110.8125 131.515625 " fill-opacity="0.3" fill-rule="nonzero"/><path fill="#000000" d="M 124.625 138.410156 L 138.433594 138.410156 L 138.433594 145.308594 L 124.625 145.308594 Z M 124.625 138.410156 " fill-opacity="0.3" fill-rule="nonzero"/><g clip-path="url(#bf9394d387)"><path fill="#000000" d="M 242.011719 83.246094 L 34.855469 83.246094 L 34.855469 214.265625 L 248.917969 214.265625 L 248.917969 83.246094 Z M 242.011719 207.367188 L 41.761719 207.367188 L 41.761719 97.035156 L 55.570312 97.035156 L 55.570312 90.140625 L 228.199219 90.140625 L 228.199219 97.035156 L 242.011719 97.035156 Z M 55.570312 103.933594 L 55.570312 97.035156 L 69.382812 97.035156 L 69.382812 103.933594 Z M 83.191406 103.933594 L 83.191406 110.828125 L 69.382812 110.828125 L 69.382812 103.933594 Z M 97.003906 110.828125 L 97.003906 117.722656 L 83.191406 117.722656 L 83.191406 110.828125 Z M 110.8125 117.722656 L 110.8125 124.621094 L 97.003906 124.621094 L 97.003906 117.722656 Z M 124.625 124.621094 L 124.625 131.515625 L 110.8125 131.515625 L 110.8125 124.621094 Z M 138.433594 131.515625 L 138.433594 138.410156 L 124.625 138.410156 L 124.625 131.515625 Z M 145.339844 131.515625 L 159.148438 131.515625 L 159.148438 138.410156 L 145.339844 138.410156 Z M 159.148438 124.621094 L 172.960938 124.621094 L 172.960938 131.515625 L 159.148438 131.515625 Z M 172.960938 117.722656 L 186.769531 117.722656 L 186.769531 124.621094 L 172.960938 124.621094 Z M 186.769531 110.828125 L 200.582031 110.828125 L 200.582031 117.722656 L 186.769531 117.722656 Z M 200.582031 103.933594 L 214.390625 103.933594 L 214.390625 110.828125 L 200.582031 110.828125 Z M 214.390625 97.035156 L 228.199219 97.035156 L 228.199219 103.933594 L 214.390625 103.933594 Z M 138.433594 138.410156 L 145.339844 138.410156 L 145.339844 145.308594 L 138.433594 145.308594 Z M 138.433594 138.410156 " fill-opacity="1" fill-rule="nonzero"/></g></svg>