<svg xmlns="http://www.w3.org/2000/svg" xmlns:xlink="http://www.w3.org/1999/xlink" width="377" zoomAndPan="magnify" viewBox="0 0 282.96 283.499989" height="377" preserveAspectRatio="xMidYMid meet" version="1.0"><defs><clipPath id="f886c0619b"><path d="M 0.230469 0 L 282.691406 0 L 282.691406 283 L 0.230469 283 Z M 0.230469 0 " clip-rule="nonzero"/></clipPath><clipPath id="124938569d"><path d="M 36.613281 38.679688 L 246.992188 38.679688 L 246.992188 244.566406 L 36.613281 244.566406 Z M 36.613281 38.679688 " clip-rule="nonzero"/></clipPath></defs><g clip-path="url(#f886c0619b)"><path fill="#ffffff" d="M 0.230469 0 L 283.230469 0 L 283.230469 283 L 0.230469 283 Z M 0.230469 0 " fill-opacity="1" fill-rule="nonzero"/><path fill="#ffffff" d="M 0.230469 0 L 283.230469 0 L 283.230469 283 L 0.230469 283 Z M 0.230469 0 " fill-opacity="1" fill-rule="nonzero"/></g><g clip-path="url(#124938569d)"><path fill="#000000" d="M 242.53125 123.753906 L 242.53125 105.820312 L 238.070312 105.820312 L 238.070312 96.855469 L 233.613281 96.855469 L 233.613281 87.929688 L 229.152344 87.929688 L 229.152344 78.964844 L 224.691406 78.964844 L 224.691406 74.5 L 220.230469 74.5 L 220.230469 70.039062 L 215.773438 70.039062 L 215.773438 65.535156 L 211.3125 65.535156 L 211.3125 61.074219 L 206.851562 61.074219 L 206.851562 56.613281 L 197.765625 56.613281 L 197.765625 52.105469 L 193.304688 52.105469 L 193.304688 47.644531 L 184.34375 47.644531 L 184.34375 43.140625 L 170.921875 43.140625 L 170.921875 38.679688 L 112.730469 38.679688 L 112.730469 43.140625 L 103.769531 43.140625 L 103.769531 47.601562 L 90.347656 47.601562 L 90.347656 52.066406 L 85.84375 52.066406 L 85.84375 56.527344 L 76.882812 56.527344 L 76.882812 60.988281 L 72.421875 60.988281 L 72.421875 65.453125 L 67.960938 65.453125 L 67.960938 69.914062 L 63.460938 69.914062 L 63.460938 74.375 L 59 74.375 L 59 78.835938 L 54.539062 78.835938 L 54.539062 87.929688 L 50.039062 87.929688 L 50.039062 96.894531 L 45.578125 96.894531 L 45.578125 105.863281 L 41.078125 105.863281 L 41.078125 123.796875 L 36.617188 123.796875 L 36.617188 155.15625 L 41.078125 155.15625 L 41.078125 177.550781 L 45.535156 177.550781 L 45.535156 186.515625 L 49.996094 186.515625 L 49.996094 195.484375 L 54.457031 195.484375 L 54.457031 199.902344 L 58.917969 199.902344 L 58.917969 208.871094 L 63.375 208.871094 L 63.375 213.332031 L 67.835938 213.332031 L 67.835938 217.792969 L 72.296875 217.792969 L 72.296875 222.253906 L 76.757812 222.253906 L 76.757812 226.71875 L 85.84375 226.71875 L 85.84375 231.179688 L 90.304688 231.179688 L 90.304688 235.640625 L 103.726562 235.640625 L 103.726562 240.105469 L 117.148438 240.105469 L 117.148438 244.566406 L 166.375 244.566406 L 166.375 240.105469 L 179.796875 240.105469 L 179.796875 235.640625 L 193.21875 235.640625 L 193.21875 231.179688 L 197.765625 231.179688 L 197.765625 226.71875 L 206.726562 226.71875 L 206.726562 222.253906 L 211.1875 222.253906 L 211.1875 217.792969 L 215.644531 217.792969 L 215.644531 213.332031 L 220.105469 213.332031 L 220.105469 208.871094 L 224.566406 208.871094 L 224.566406 204.40625 L 229.027344 204.40625 L 229.027344 195.441406 L 233.484375 195.441406 L 233.484375 186.472656 L 237.945312 186.472656 L 237.945312 177.507812 L 242.40625 177.507812 L 242.40625 159.574219 L 246.992188 159.574219 L 246.992188 123.753906 Z M 233.570312 155.113281 L 229.109375 155.113281 L 229.109375 173.046875 L 224.648438 173.046875 L 224.648438 182.011719 L 220.191406 182.011719 L 220.191406 190.980469 L 215.730469 190.980469 L 215.730469 195.441406 L 211.269531 195.441406 L 211.269531 204.40625 L 206.808594 204.40625 L 206.808594 208.871094 L 197.765625 208.871094 L 197.765625 213.332031 L 193.304688 213.332031 L 193.304688 217.792969 L 188.84375 217.792969 L 188.84375 222.253906 L 179.882812 222.253906 L 179.882812 226.71875 L 166.460938 226.71875 L 166.460938 231.179688 L 117.234375 231.179688 L 117.234375 226.71875 L 108.269531 226.71875 L 108.269531 222.253906 L 99.308594 222.253906 L 99.308594 217.792969 L 90.347656 217.792969 L 90.347656 213.332031 L 85.84375 213.332031 L 85.84375 208.871094 L 81.382812 208.871094 L 81.382812 204.40625 L 76.882812 204.40625 L 76.882812 199.902344 L 72.421875 199.902344 L 72.421875 195.441406 L 67.960938 195.441406 L 67.960938 190.980469 L 63.460938 190.980469 L 63.460938 182.011719 L 59 182.011719 L 59 168.585938 L 54.539062 168.585938 L 54.539062 150.652344 L 50.039062 150.652344 L 50.039062 132.71875 L 54.5 132.71875 L 54.5 110.324219 L 58.957031 110.324219 L 58.957031 101.359375 L 63.417969 101.359375 L 63.417969 92.390625 L 67.878906 92.390625 L 67.878906 87.929688 L 72.339844 87.929688 L 72.339844 83.46875 L 76.796875 83.46875 L 76.796875 78.964844 L 81.257812 78.964844 L 81.257812 74.5 L 85.84375 74.5 L 85.84375 70.039062 L 90.304688 70.039062 L 90.304688 65.535156 L 99.265625 65.535156 L 99.265625 61.074219 L 108.230469 61.074219 L 108.230469 56.613281 L 117.191406 56.613281 L 117.191406 52.105469 L 166.417969 52.105469 L 166.417969 56.570312 L 179.839844 56.570312 L 179.839844 61.03125 L 188.800781 61.03125 L 188.800781 65.492188 L 193.261719 65.492188 L 193.261719 69.957031 L 197.765625 69.957031 L 197.765625 74.417969 L 206.726562 74.417969 L 206.726562 78.878906 L 211.1875 78.878906 L 211.1875 87.929688 L 215.644531 87.929688 L 215.644531 92.390625 L 220.105469 92.390625 L 220.105469 101.359375 L 224.566406 101.359375 L 224.566406 110.324219 L 229.027344 110.324219 L 229.027344 128.257812 L 233.484375 128.257812 L 233.484375 155.113281 Z M 233.570312 155.113281 " fill-opacity="1" fill-rule="nonzero"/></g><path fill="#000000" d="M 112.730469 83.46875 L 126.152344 83.46875 L 126.152344 146.148438 L 112.730469 146.148438 Z M 112.730469 83.46875 " fill-opacity="1" fill-rule="nonzero"/><path fill="#000000" d="M 157.457031 83.46875 L 170.878906 83.46875 L 170.878906 146.148438 L 157.457031 146.148438 Z M 157.457031 83.46875 " fill-opacity="1" fill-rule="nonzero"/><path fill="#000000" d="M 202.222656 155.113281 L 193.261719 155.113281 L 193.261719 164.078125 L 188.800781 164.078125 L 188.800781 173.003906 L 184.34375 173.003906 L 184.34375 177.507812 L 179.839844 177.507812 L 179.839844 181.96875 L 175.378906 181.96875 L 175.378906 186.472656 L 166.417969 186.472656 L 166.417969 190.9375 L 157.457031 190.9375 L 157.457031 195.398438 L 126.152344 195.398438 L 126.152344 190.9375 L 117.191406 190.9375 L 117.191406 186.472656 L 108.230469 186.472656 L 108.230469 181.96875 L 103.769531 181.96875 L 103.769531 177.507812 L 99.265625 177.507812 L 99.265625 173.003906 L 94.804688 173.003906 L 94.804688 164.078125 L 90.347656 164.078125 L 90.347656 155.113281 L 81.382812 155.113281 L 81.382812 159.574219 L 76.882812 159.574219 L 76.882812 168.542969 L 81.382812 168.542969 L 81.382812 177.507812 L 85.84375 177.507812 L 85.84375 181.96875 L 90.347656 181.96875 L 90.347656 186.472656 L 94.804688 186.472656 L 94.804688 190.9375 L 99.265625 190.9375 L 99.265625 195.398438 L 103.769531 195.398438 L 103.769531 199.902344 L 112.730469 199.902344 L 112.730469 204.363281 L 121.652344 204.363281 L 121.652344 208.871094 L 161.957031 208.871094 L 161.957031 204.363281 L 170.878906 204.363281 L 170.878906 199.902344 L 179.839844 199.902344 L 179.839844 195.398438 L 184.34375 195.398438 L 184.34375 190.9375 L 188.800781 190.9375 L 188.800781 186.472656 L 193.261719 186.472656 L 193.261719 181.96875 L 197.765625 181.96875 L 197.765625 177.507812 L 202.222656 177.507812 L 202.222656 168.542969 L 206.726562 168.542969 L 206.726562 159.574219 L 202.222656 159.574219 Z M 202.222656 155.113281 " fill-opacity="1" fill-rule="nonzero"/></svg>