<svg xmlns="http://www.w3.org/2000/svg" xmlns:xlink="http://www.w3.org/1999/xlink" width="377" zoomAndPan="magnify" viewBox="0 0 282.96 283.499989" height="377" preserveAspectRatio="xMidYMid meet" version="1.0"><defs><clipPath id="66dff375fc"><path d="M 0.230469 0 L 282.691406 0 L 282.691406 283 L 0.230469 283 Z M 0.230469 0 " clip-rule="nonzero"/></clipPath><clipPath id="11f7c8378a"><path d="M 36.902344 123.371094 L 246.53125 123.371094 L 246.53125 181.019531 L 36.902344 181.019531 Z M 36.902344 123.371094 " clip-rule="nonzero"/></clipPath><clipPath id="c3f045566b"><path d="M 36.902344 123.371094 L 246.53125 123.371094 L 246.53125 181.019531 L 36.902344 181.019531 Z M 36.902344 123.371094 " clip-rule="nonzero"/></clipPath></defs><g clip-path="url(#66dff375fc)"><path fill="#ffffff" d="M 0.230469 0 L 283.230469 0 L 283.230469 283 L 0.230469 283 Z M 0.230469 0 " fill-opacity="1" fill-rule="nonzero"/><path fill="#ffffff" d="M 0.230469 0 L 283.230469 0 L 283.230469 283 L 0.230469 283 Z M 0.230469 0 " fill-opacity="1" fill-rule="nonzero"/></g><g clip-path="url(#11f7c8378a)"><path fill="#c0c0c0" d="M 36.910156 123.371094 L 246.523438 123.371094 L 246.523438 181.019531 L 36.910156 181.019531 Z M 36.910156 123.371094 " fill-opacity="1" fill-rule="nonzero"/></g><path fill="#ffffff" d="M 237.53125 127.84375 L 41.332031 127.84375 L 41.332031 176.617188 L 45.828125 176.617188 L 45.828125 132.246094 L 237.53125 132.246094 Z M 237.53125 127.84375 " fill-opacity="1" fill-rule="nonzero"/><path fill="#000000" d="M 45.828125 176.617188 L 242.027344 176.617188 L 242.027344 127.84375 L 237.53125 127.84375 L 237.53125 172.21875 L 45.828125 172.21875 Z M 45.828125 176.617188 " fill-opacity="0.3" fill-rule="nonzero"/><g clip-path="url(#c3f045566b)"><path fill="#000000" d="M 242.027344 123.371094 L 36.910156 123.371094 L 36.910156 181.019531 L 246.378906 181.019531 L 246.378906 123.371094 Z M 242.027344 176.617188 L 41.40625 176.617188 L 41.40625 127.773438 L 242.027344 127.773438 Z M 128.375 145.097656 L 122.238281 145.097656 L 122.238281 143.039062 L 128.375 143.039062 Z M 128.375 147.085938 L 128.375 145.027344 L 130.445312 145.027344 L 130.445312 147.085938 Z M 122.167969 145.097656 L 122.167969 151.203125 L 120.097656 151.203125 L 120.097656 145.097656 Z M 122.167969 157.308594 L 122.167969 159.367188 L 120.097656 159.367188 L 120.097656 157.308594 Z M 128.375 151.203125 L 128.375 153.261719 L 122.238281 153.261719 L 122.238281 151.203125 Z M 130.371094 159.367188 L 128.304688 159.367188 L 128.304688 153.261719 L 130.371094 153.261719 Z M 122.167969 161.425781 L 122.167969 159.367188 L 128.304688 159.367188 L 128.304688 161.425781 Z M 135.011719 159.367188 L 132.941406 159.367188 L 132.941406 145.097656 L 135.011719 145.097656 L 135.011719 149.214844 L 137.078125 149.214844 L 137.078125 151.273438 L 135.011719 151.273438 Z M 135.011719 161.425781 L 135.011719 159.367188 L 137.078125 159.367188 L 137.078125 161.425781 Z M 147.851562 155.25 L 141.714844 155.25 L 141.714844 153.191406 L 147.851562 153.191406 L 147.851562 151.132812 L 149.921875 151.132812 L 149.921875 161.355469 L 141.714844 161.355469 L 141.714844 159.296875 L 147.851562 159.296875 Z M 147.851562 149.144531 L 147.851562 151.203125 L 141.714844 151.203125 L 141.714844 149.144531 Z M 141.714844 159.367188 L 139.648438 159.367188 L 139.648438 155.25 L 141.714844 155.25 Z M 154.558594 161.425781 L 152.488281 161.425781 L 152.488281 149.144531 L 156.628906 149.144531 L 156.628906 151.203125 L 154.558594 151.203125 Z M 161.195312 159.367188 L 159.125 159.367188 L 159.125 145.097656 L 161.195312 145.097656 L 161.195312 149.214844 L 163.261719 149.214844 L 163.261719 151.273438 L 161.195312 151.273438 Z M 161.195312 161.425781 L 161.195312 159.367188 L 163.261719 159.367188 L 163.261719 161.425781 Z M 161.195312 161.425781 " fill-opacity="1" fill-rule="nonzero"/></g></svg>